<?xml version="1.0" encoding="utf-8"?>
<!-- Generator: Adobe Illustrator 18.0.0, SVG Export Plug-In . SVG Version: 6.00 Build 0)  -->
<!DOCTYPE svg PUBLIC "-//W3C//DTD SVG 1.1//EN" "http://www.w3.org/Graphics/SVG/1.1/DTD/svg11.dtd">
<svg version="1.1" id="Layer_1" xmlns="http://www.w3.org/2000/svg" xmlns:xlink="http://www.w3.org/1999/xlink"
	 x="0px" y="0px" viewBox="0.8 306.1 593.6 229.8" xml:space="preserve">
<g>
	<path fill="#F9AE0A" d="M377.4,474.8c-18.1,0-32.9-14.8-32.9-33c0-18.1,14.8-32.9,33-32.7c18.1,0,32.9,14.8,32.9,32.9
		C410.2,460.2,395.5,474.8,377.4,474.8"/>
	<path d="M417.6,420.4c0-0.2-0.2-0.3-0.2-0.3l-0.3-0.5l0,0c-7.9-13.8-22.5-23-39.4-23c-25.2,0-45.4,20.3-45.6,45.3
		c0,25.2,20.1,45.4,45.3,45.6c21.3,0,39.2-14.6,44.1-34.4h14.8L417.6,420.4z M377.4,465.9c-13.2,0-23.8-10.7-23.8-24
		s10.7-23.8,24-23.8c13.2,0,23.8,10.9,23.8,24S390.6,465.9,377.4,465.9"/>
	<path d="M115.3,448.8H47.5c1,6,3.7,10.7,7.9,14.3s9.7,5.4,16.3,5.4c7.9,0,14.6-2.7,20.3-8.2l17.8,8.4c-4.4,6.4-9.7,10.9-15.9,13.9
		S80.2,487,71.7,487c-13.2,0-24-4.2-32.2-12.6c-8.4-8.2-12.4-18.8-12.4-31.2c0-12.9,4.2-23.5,12.4-32c8.2-8.6,18.6-12.7,31-12.7
		c13.2,0,24,4.2,32.4,12.7c8.4,8.4,12.4,19.6,12.4,33.5V448.8z M94.1,432c-1.3-4.7-4.2-8.6-8.2-11.4c-4-2.9-8.9-4.4-14.3-4.4
		c-5.9,0-11.1,1.7-15.4,4.9c-2.9,2-5.4,5.7-7.7,10.9H94.1L94.1,432z"/>
	<rect x="123.7" y="368.1" width="21.1" height="116.5"/>
	<path d="M153.5,400.5h7.5c0-11.1,0.3-17.6,0.5-19.6c0.5-4.7,2.5-8.4,5.9-11.1c3.4-2.7,8-4,14.1-4c4.4,0,9.4,1,14.8,3v16.3
		c-3-0.8-5.5-1.3-7.5-1.3c-2.5,0-4.4,0.5-5.4,1.5c-0.8,0.7-1.2,2.3-1.2,4.9v10.6h13.4v17.8h-13.4v66.2H161v-66.2h-7.5V400.5
		L153.5,400.5z"/>
	<path d="M263.5,400.5h21.1v84h-21.1v-8.9c-4.2,3.9-8.2,6.7-12.4,8.4c-4.2,1.7-8.6,2.7-13.4,2.7c-10.9,0-20.3-4.2-28.2-12.7
		c-7.9-8.4-11.9-18.9-11.9-31.4c0-12.9,3.9-23.6,11.6-31.9s16.9-12.4,28-12.4c5,0,9.7,1,14.3,2.9c4.4,1.8,8.6,4.7,12.2,8.6
		L263.5,400.5L263.5,400.5z M241.4,417.9c-6.5,0-11.9,2.3-16.3,6.9c-4.4,4.5-6.4,10.6-6.4,17.8c0,7.2,2.2,13.2,6.5,17.9
		c4.4,4.7,9.7,7,16.3,7c6.5,0,12.1-2.3,16.4-6.9c4.4-4.5,6.5-10.7,6.5-18.1s-2.2-13.2-6.5-17.8C253.6,420.1,248.1,417.9,241.4,417.9
		"/>
	<path d="M294.7,400.5h18.1v10.6c2-4.2,4.5-7.4,7.9-9.6c3.2-2.2,6.9-3.2,10.7-3.2c2.7,0,5.5,0.7,8.6,2.2l-6.5,18.1
		c-2.5-1.2-4.5-1.8-6-1.8c-3.2,0-6,2-8.2,6s-3.4,11.9-3.4,23.6v4v34h-21L294.7,400.5L294.7,400.5z"/>
</g>
</svg>
