<?xml version="1.0" encoding="utf-8"?>
<!-- Generator: Adobe Illustrator 15.1.0, SVG Export Plug-In . SVG Version: 6.00 Build 0)  -->
<!DOCTYPE svg PUBLIC "-//W3C//DTD SVG 1.1//EN" "http://www.w3.org/Graphics/SVG/1.1/DTD/svg11.dtd">
<svg version="1.1" id="Capa_1" xmlns="http://www.w3.org/2000/svg" xmlns:xlink="http://www.w3.org/1999/xlink" x="0px" y="0px"
	 viewBox="0 0 376.992 124.329" xml:space="preserve">
<g>
	<g>
		<polygon fill="none" points="319.423,73.01 316.567,80.729 322.216,80.729 		"/>
		<path fill="none" d="M292.349,52.572c0.502,0.554,1.111,0.986,1.82,1.307c0.703,0.313,1.488,0.47,2.348,0.47
			s1.645-0.157,2.352-0.47c0.707-0.321,1.316-0.753,1.832-1.307s0.92-1.217,1.203-1.994c0.291-0.773,0.434-1.62,0.434-2.536
			c0-0.877-0.143-1.7-0.434-2.463c-0.283-0.767-0.68-1.423-1.186-1.965c-0.508-0.544-1.121-0.971-1.834-1.286
			c-0.719-0.319-1.508-0.477-2.367-0.477s-1.645,0.157-2.348,0.477c-0.709,0.315-1.322,0.742-1.838,1.286
			c-0.516,0.542-0.912,1.199-1.189,1.965c-0.273,0.763-0.414,1.585-0.414,2.463c0,0.916,0.145,1.763,0.43,2.536
			C291.44,51.355,291.841,52.018,292.349,52.572z"/>
		<path fill="none" d="M239.005,46.57c0.426-0.067,0.809-0.186,1.152-0.36c0.348-0.174,0.631-0.421,0.852-0.745
			c0.221-0.325,0.332-0.747,0.332-1.262c0-0.479-0.104-0.865-0.303-1.162c-0.201-0.294-0.459-0.525-0.777-0.689
			c-0.32-0.16-0.672-0.272-1.068-0.327c-0.393-0.06-0.773-0.088-1.137-0.088h-2.617v4.732h2.33
			C238.171,46.67,238.583,46.635,239.005,46.57z"/>
		<polygon fill="none" points="258.565,43.397 255.987,50.366 261.089,50.366 		"/>
		<path fill="none" d="M139.55,83.367c0.687-0.51,1.239-1.189,1.648-2.035c0.413-0.848,0.618-1.893,0.618-3.145
			c0-1.271-0.205-2.322-0.618-3.16c-0.409-0.836-0.961-1.5-1.648-2c-0.691-0.498-1.473-0.852-2.352-1.062s-1.779-0.318-2.712-0.318
			h-2.7v13.143h2.569c0.974,0,1.91-0.105,2.814-0.328C138.065,84.238,138.858,83.871,139.55,83.367z"/>
		<path fill="none" d="M184.287,46.57c0.425-0.067,0.81-0.186,1.153-0.36c0.348-0.174,0.63-0.421,0.851-0.745
			c0.221-0.325,0.331-0.747,0.331-1.262c0-0.479-0.102-0.865-0.303-1.162c-0.2-0.294-0.462-0.525-0.777-0.689
			c-0.319-0.16-0.671-0.272-1.068-0.327c-0.393-0.06-0.773-0.088-1.137-0.088h-2.618v4.732h2.328
			C183.457,46.67,183.866,46.635,184.287,46.57z"/>
		<polygon fill="none" points="252.862,80.729 258.521,80.729 255.722,73.01 		"/>
		<path fill="none" d="M5.367,118.969H371.63V5.362H5.367V118.969z M261.755,89.494l-1.746-4.414h-8.701l-1.652,4.414h-5.902
			l9.43-22.484h5.271l9.334,22.484H261.755z M283.827,89.494h-14.164V67.01h5.461v17.754h8.703V89.494z M306.265,83.285
			c-0.736,1.43-1.699,2.604-2.893,3.523c-1.199,0.92-2.549,1.6-4.051,2.035c-1.504,0.432-3.025,0.65-4.572,0.65h-8.381V67.01h8.127
			c1.588,0,3.154,0.186,4.701,0.557c1.545,0.371,2.92,0.984,4.127,1.842s2.18,2.006,2.92,3.445s1.113,3.219,1.113,5.334
			C307.356,80.158,306.991,81.854,306.265,83.285z M353.259,83.285c-0.732,1.43-1.697,2.604-2.893,3.523
			c-1.197,0.92-2.547,1.6-4.045,2.035c-1.506,0.432-3.031,0.65-4.576,0.65h-8.383V67.01h8.129c1.586,0,3.152,0.186,4.699,0.557
			s2.926,0.984,4.131,1.842c1.203,0.857,2.178,2.006,2.918,3.445c0.744,1.439,1.115,3.219,1.115,5.334
			C354.354,80.158,353.987,81.854,353.259,83.285z M341.319,37.984h13.012v2.491h-10.174v6.08h9.576v2.436h-9.576v6.762h10.607
			v2.523h-13.445V37.984z M319.505,37.984h6.965c1.301,0,2.598,0.192,3.898,0.575c1.301,0.378,2.475,0.979,3.527,1.802
			c1.051,0.822,1.9,1.874,2.551,3.152c0.65,1.282,0.975,2.822,0.975,4.618c0,1.738-0.324,3.244-0.975,4.512
			c-0.65,1.272-1.5,2.323-2.551,3.154c-1.053,0.832-2.227,1.452-3.527,1.863c-1.301,0.411-2.598,0.618-3.898,0.618h-6.965V37.984z
			 M322.151,67.01l9.338,22.484h-6.033l-1.746-4.414h-8.701l-1.652,4.414h-5.902l9.428-22.484H322.151z M286.315,43.645
			c0.551-1.309,1.32-2.421,2.303-3.342c0.984-0.917,2.15-1.624,3.496-2.119c1.35-0.497,2.814-0.749,4.402-0.749
			c1.586,0,3.059,0.252,4.414,0.749c1.354,0.495,2.527,1.203,3.514,2.119c0.98,0.92,1.75,2.033,2.307,3.342
			c0.551,1.307,0.83,2.773,0.83,4.397c0,1.607-0.279,3.074-0.83,4.401c-0.557,1.327-1.326,2.462-2.307,3.411
			c-0.986,0.947-2.16,1.675-3.514,2.194c-1.355,0.516-2.828,0.773-4.414,0.773c-1.588,0-3.053-0.258-4.402-0.773
			c-1.346-0.519-2.512-1.248-3.496-2.194c-0.982-0.949-1.752-2.084-2.303-3.411c-0.557-1.328-0.836-2.794-0.836-4.401
			C285.479,46.418,285.759,44.952,286.315,43.645z M268.083,37.984h16.367v4.185h-5.732v16.108h-4.904V42.168h-5.73V37.984z
			 M256.274,37.984h4.762l8.422,20.292h-5.445l-1.574-3.984h-7.857l-1.488,3.984h-5.33L256.274,37.984z M230.681,37.984h7.734
			c0.975,0,1.928,0.1,2.855,0.299c0.924,0.202,1.754,0.54,2.49,1.018c0.736,0.477,1.326,1.109,1.768,1.892
			c0.434,0.783,0.654,1.759,0.654,2.927c0,1.372-0.371,2.53-1.115,3.467c-0.746,0.935-1.775,1.603-3.098,2.006l5.301,8.684h-5.73
			l-4.404-8.056h-1.674v8.056h-4.781V37.984z M229.032,82.316c0.16,0.551,0.4,1.041,0.732,1.477c0.326,0.432,0.76,0.777,1.301,1.033
			c0.539,0.254,1.189,0.379,1.955,0.379c0.76,0,1.41-0.125,1.951-0.379c0.539-0.256,0.977-0.602,1.316-1.033
			c0.34-0.436,0.586-0.926,0.729-1.477c0.15-0.549,0.225-1.133,0.225-1.748V67.01h5.432v14.004c0,1.355-0.229,2.59-0.682,3.701
			c-0.455,1.109-1.109,2.062-1.955,2.857c-0.848,0.793-1.871,1.414-3.064,1.855c-1.195,0.447-2.523,0.67-3.984,0.67
			c-1.48,0-2.814-0.223-4-0.67c-1.188-0.441-2.193-1.062-3.02-1.855c-0.826-0.795-1.459-1.748-1.906-2.857
			c-0.441-1.111-0.666-2.346-0.666-3.701V67.01h5.398v13.559C228.794,81.184,228.872,81.768,229.032,82.316z M211.528,37.984h16.371
			v4.185h-5.734v16.108h-4.9V42.168h-5.736V37.984z M215.3,67.215c1.521,0.545,2.762,1.266,3.715,2.174l-3.428,3.91
			c-0.531-0.617-1.232-1.117-2.1-1.508c-0.867-0.393-1.852-0.59-2.953-0.59c-0.947,0-1.832,0.176-2.633,0.527
			c-0.807,0.348-1.506,0.832-2.096,1.459c-0.592,0.623-1.055,1.365-1.383,2.219c-0.326,0.859-0.49,1.801-0.49,2.814
			c0,1.037,0.148,1.988,0.441,2.859c0.295,0.867,0.736,1.609,1.318,2.236c0.584,0.625,1.305,1.111,2.16,1.461
			c0.857,0.348,1.836,0.525,2.936,0.525c0.639,0,1.24-0.049,1.812-0.143c0.572-0.098,1.1-0.252,1.588-0.461v-4.1h-4.287v-4.379
			h9.273v11.904c-1.102,0.576-2.391,1.037-3.857,1.402c-1.473,0.355-3.076,0.535-4.814,0.535c-1.801,0-3.457-0.283-4.967-0.857
			c-1.518-0.57-2.818-1.377-3.91-2.414c-1.088-1.035-1.939-2.279-2.553-3.727c-0.617-1.451-0.924-3.068-0.924-4.844
			c0-1.801,0.314-3.434,0.936-4.893c0.627-1.457,1.49-2.701,2.59-3.729c1.1-1.029,2.393-1.816,3.879-2.365
			c1.48-0.551,3.08-0.826,4.793-0.826C212.126,66.408,213.774,66.676,215.3,67.215z M195.536,37.984h13.645v4.125h-8.916v3.843
			h8.426v3.927h-8.426v4.213h9.432v4.184h-14.16V37.984z M194.562,89.494h-5.46V67.01h5.46V89.494z M175.959,37.984h7.739
			c0.973,0,1.926,0.1,2.855,0.299c0.924,0.202,1.755,0.54,2.491,1.018c0.736,0.477,1.324,1.109,1.764,1.892
			c0.441,0.783,0.658,1.759,0.658,2.927c0,1.372-0.373,2.53-1.117,3.467c-0.748,0.935-1.775,1.603-3.096,2.006l5.301,8.684h-5.73
			l-4.406-8.056h-1.673v8.056h-4.786V37.984z M179.702,82.062c-0.213-0.295-0.511-0.568-0.904-0.811
			c-0.393-0.242-0.88-0.465-1.46-0.668c-0.581-0.197-1.244-0.416-1.988-0.65c-0.716-0.23-1.424-0.508-2.111-0.82
			c-0.687-0.322-1.301-0.729-1.841-1.225c-0.54-0.498-0.974-1.102-1.305-1.811c-0.327-0.709-0.487-1.574-0.487-2.586
			c0-1.252,0.253-2.322,0.757-3.211c0.511-0.893,1.178-1.619,2.004-2.191c0.827-0.57,1.755-0.988,2.794-1.254
			c1.035-0.266,2.082-0.398,3.146-0.398c1.268,0,2.565,0.236,3.89,0.697c1.321,0.467,2.483,1.154,3.477,2.066l-3.465,3.652
			c-0.466-0.592-1.072-1.062-1.824-1.414c-0.753-0.348-1.477-0.523-2.176-0.523c-0.36,0-0.724,0.031-1.096,0.094
			c-0.368,0.066-0.704,0.188-0.998,0.367s-0.544,0.414-0.745,0.699c-0.2,0.287-0.302,0.65-0.302,1.096
			c0,0.377,0.078,0.699,0.237,0.949c0.16,0.254,0.393,0.477,0.7,0.666c0.307,0.191,0.671,0.369,1.096,0.525
			c0.421,0.158,0.896,0.324,1.428,0.492c0.761,0.254,1.554,0.537,2.38,0.844s1.575,0.713,2.254,1.223s1.239,1.139,1.686,1.893
			c0.446,0.748,0.667,1.686,0.667,2.807c0,1.293-0.241,2.408-0.712,3.348c-0.479,0.945-1.117,1.723-1.926,2.336
			c-0.802,0.619-1.727,1.07-2.761,1.367c-1.039,0.295-2.106,0.441-3.207,0.441c-1.607,0-3.166-0.277-4.667-0.838
			c-1.501-0.562-2.753-1.361-3.747-2.402l3.555-3.617c0.552,0.682,1.276,1.246,2.176,1.697c0.9,0.457,1.795,0.684,2.683,0.684
			c0.405,0,0.793-0.043,1.174-0.125c0.38-0.088,0.716-0.225,1.002-0.416c0.286-0.188,0.511-0.443,0.683-0.758
			c0.167-0.32,0.253-0.701,0.253-1.145C180.021,82.719,179.915,82.357,179.702,82.062z M165.635,75.84v4.348H156.3v4.67h10.447
			v4.637h-15.687V67.01h15.114v4.572H156.3v4.258H165.635z M147.035,37.984h3.698l10.607,16.223h0.057V37.984h2.839v20.292h-3.583
			l-10.721-16.568h-0.057v16.568h-2.839V37.984z M126.485,37.984h2.839v12.609c0,0.689,0.086,1.372,0.258,2.049
			c0.171,0.679,0.454,1.286,0.847,1.822c0.388,0.536,0.908,0.965,1.546,1.289c0.642,0.325,1.436,0.489,2.397,0.489
			c0.933,0,1.727-0.164,2.377-0.489c0.65-0.323,1.169-0.753,1.562-1.289c0.393-0.536,0.675-1.144,0.847-1.822
			c0.172-0.677,0.258-1.36,0.258-2.049V37.984h2.838v12.783c0,1.033-0.159,2.033-0.474,2.998c-0.315,0.965-0.798,1.818-1.448,2.565
			c-0.65,0.74-1.473,1.339-2.467,1.79c-0.994,0.45-2.16,0.673-3.493,0.673c-1.341,0-2.507-0.223-3.501-0.673
			c-0.994-0.45-1.812-1.049-2.462-1.79c-0.65-0.747-1.133-1.6-1.448-2.565c-0.319-0.965-0.475-1.965-0.475-2.998V37.984z
			 M126.481,67.01h8.127c1.587,0,3.154,0.186,4.704,0.557c1.542,0.371,2.92,0.984,4.127,1.842c1.207,0.857,2.176,2.006,2.917,3.445
			c0.744,1.439,1.117,3.219,1.117,5.334c0,1.971-0.364,3.666-1.096,5.098c-0.732,1.43-1.694,2.604-2.892,3.523
			c-1.194,0.92-2.544,1.6-4.045,2.035c-1.505,0.432-3.031,0.65-4.573,0.65h-8.385V67.01z M10.218,10.216H114.12v103.899H10.218
			V10.216z"/>
		<path fill="none" d="M331.989,53.777c0.756-0.65,1.342-1.452,1.762-2.407c0.422-0.955,0.631-2.039,0.631-3.239
			c0-1.262-0.209-2.371-0.631-3.324c-0.42-0.959-1.006-1.755-1.762-2.395c-0.758-0.64-1.652-1.129-2.691-1.462
			c-1.043-0.335-2.178-0.503-3.4-0.503h-3.555v15.339h3.555c1.223,0,2.357-0.176,3.4-0.52
			C330.337,54.92,331.231,54.425,331.989,53.777z"/>
		<path fill="none" d="M346.433,73.027c-0.691-0.498-1.473-0.852-2.354-1.062c-0.879-0.211-1.783-0.318-2.715-0.318h-2.699v13.143
			h2.572c0.973,0,1.91-0.105,2.811-0.328c0.898-0.223,1.693-0.59,2.385-1.094c0.686-0.51,1.238-1.189,1.648-2.035
			c0.412-0.848,0.617-1.893,0.617-3.145c0-1.271-0.205-2.322-0.617-3.16C347.671,74.191,347.118,73.527,346.433,73.027z"/>
		<path fill="none" d="M299.437,73.027c-0.691-0.498-1.477-0.852-2.352-1.062c-0.879-0.211-1.787-0.318-2.717-0.318h-2.699v13.143
			h2.568c0.979,0,1.914-0.105,2.814-0.328s1.693-0.59,2.385-1.094c0.684-0.51,1.236-1.189,1.648-2.035
			c0.414-0.848,0.617-1.893,0.617-3.145c0-1.271-0.203-2.322-0.617-3.16C300.673,74.191,300.12,73.527,299.437,73.027z"/>
		<path fill="#009FE3" d="M92.51,47.067c0.458,0.088,0.92,0.182,1.382,0.276c0.339-0.276,0.732-0.491,1.141-0.683
			C94.199,46.805,93.356,46.946,92.51,47.067z"/>
		<path fill="#009FE3" d="M87.078,46.343c-0.332,0.143-0.667,0.278-1.002,0.401c1.984-0.198,3.952-0.411,5.891-0.691
			C90.215,45.719,88.534,45.535,87.078,46.343z"/>
		<path fill="#009FE3" d="M88.116,47.122c-0.167,0.067-0.335,0.139-0.495,0.233c-0.335,0.143-0.671,0.28-1.002,0.399
			c1.223-0.133,2.442-0.266,3.649-0.399c0.752-0.096,1.501-0.194,2.242-0.288C90.955,46.768,89.45,46.586,88.116,47.122z"/>
		<path fill="#009FE3" d="M70.119,47.815c1.419,0.162,2.822,0.509,4.09-0.111c0.012-0.192,0.618-0.123,0.442-0.519
			c1.231-0.051,2.646,0.108,3.886-0.133c0.536-0.065,1.084-0.368,1.64-0.752c-3.391,0.401-6.806,0.795-10.443,1.127
			C69.93,47.606,69.914,47.793,70.119,47.815z"/>
		<path fill="#009FE3" d="M44.521,29.345c0.033,0.053,0.062,0.108,0.094,0.162c0.028,0.021,0.065,0.041,0.102,0.065
			c-0.029-0.041-0.057-0.084-0.086-0.125C44.594,29.408,44.557,29.377,44.521,29.345z"/>
		<path fill="#009FE3" d="M84.476,55.882c-1.141-0.129-2.467-0.278-3.031,0.771c1.44-0.385,3.031-0.405,4.262-0.827
			c2.291-0.391,4.667,0.197,6.95,0.559c0.287-0.043,0.577-0.084,0.863-0.129c-2.863-0.663-5.669-0.568-8.598-0.896v0.004
			C84.897,55.736,84.3,55.483,84.476,55.882z"/>
		<path fill="#009FE3" d="M44.647,29.572c-0.008-0.024-0.021-0.041-0.033-0.065c-0.037-0.022-0.07-0.039-0.098-0.049
			C44.562,29.498,44.606,29.533,44.647,29.572z"/>
		<path fill="#009FE3" d="M61.574,48.061c0.355,0.037,0.711,0.062,1.067,0.065c-0.384-0.051-0.765-0.094-1.146-0.133
			C61.521,48.018,61.545,48.038,61.574,48.061z"/>
		<path fill="#009FE3" d="M69.726,47.427l-0.069,0.002c-0.912,0.082-1.804,0.153-2.688,0.227c-1.436,0.262-2.867,0.489-4.328,0.47
			C65.141,48.454,67.685,48.983,69.726,47.427z"/>
		<path fill="#009FE3" d="M75.976,57.81c1.55-0.078,3.051-0.419,4.541-0.663c0.126-0.098,0.327-0.255,0.515-0.364
			C79.146,56.381,77.747,57.276,75.976,57.81z"/>
		<path fill="#009FE3" d="M72.602,61.263c0.315-0.07,0.634-0.115,0.965-0.127c1.513,0.172,3.015,0.28,4.512,0.35
			c0.552-0.128,1.112-0.255,1.685-0.386c1.902-0.307,3.808-0.524,5.706-0.716c-2.687,0.004-5.379-0.025-8.091-0.199
			c-1.444,0.419-3.26,0.509-5.121,0.667C72.372,60.991,72.491,61.125,72.602,61.263z"/>
		<path fill="#009FE3" d="M97.23,57.115c-2.233,0.233-4.438,0.597-6.578,1.035l0.139,0.014
			C93.074,57.886,95.177,57.575,97.23,57.115z"/>
		<path fill="#009FE3" d="M96.208,55.91c-0.9,0.098-1.796,0.217-2.688,0.346c0.135,0.035,0.27,0.065,0.405,0.1
			C94.694,56.223,95.455,56.08,96.208,55.91z"/>
		<path fill="#009FE3" d="M107.117,61.199c0.069,0.004,0.135,0.014,0.205,0.019C107.149,61.025,107.129,61.081,107.117,61.199z"/>
		<path fill="#009FE3" d="M89.221,57.029c1.403-0.167,2.729-0.348,4.021-0.558c-0.196-0.027-0.389-0.055-0.585-0.086
			C91.495,56.575,90.346,56.788,89.221,57.029z"/>
		<path fill="#009FE3" d="M93.823,56.548l1.215,0.135c-0.373-0.125-0.741-0.233-1.113-0.327c-0.225,0.039-0.454,0.076-0.683,0.115
			C93.434,56.495,93.63,56.524,93.823,56.548z"/>
		<path fill="#009FE3" d="M75.563,57.925c0.143-0.043,0.278-0.082,0.413-0.115c-0.602,0.027-1.207,0.022-1.829-0.047
			C74.553,57.81,75.146,58.064,75.563,57.925z"/>
		<path fill="#009FE3" d="M25.667,68.973c0.053-0.018,0.106-0.035,0.16-0.049c-0.017-0.012-0.037-0.016-0.057-0.021
			C25.737,68.928,25.688,68.947,25.667,68.973z"/>
		<path fill="#009FE3" d="M81.032,56.784c0.106,0.024,0.213,0.053,0.315,0.073c0.037-0.069,0.065-0.143,0.098-0.204l-0.086,0.021
			C81.281,56.663,81.163,56.714,81.032,56.784z"/>
		<path fill="#009FE3" d="M66.842,48.521c-1.215,0.309-2.487,0.47-3.73,0.503C65.067,49.261,66.711,49.499,66.842,48.521z"/>
		<path fill="#009FE3" d="M71.554,60.673c0.012-0.004,0.021-0.008,0.029-0.01c-0.11-0.133-0.225-0.258-0.335-0.391
			C71.35,60.406,71.452,60.541,71.554,60.673z"/>
		<path fill="#009FE3" d="M74.941,81.59c0.352,0.414,0.708,0.832,1.064,1.238c-0.373-0.441-0.777-0.926-1.035-1.238
			C74.961,81.59,74.949,81.59,74.941,81.59z"/>
		<path fill="#009FE3" d="M71.734,60.903c0.126,0.164,0.25,0.327,0.372,0.489c0.033-0.006,0.057-0.019,0.086-0.022
			c-0.131-0.156-0.27-0.315-0.405-0.469C71.767,60.9,71.755,60.903,71.734,60.903z"/>
		<path fill="#009FE3" d="M31.01,69.904c0.527,0.207,0.941,0.451,1.333,0.705c0.348-0.047,0.711-0.078,1.084-0.076
			c0.99-0.002,1.959,0.021,2.917,0.066c-0.131-0.133,0.102-0.117,0.217-0.143c0.123-0.014,0.237-0.025,0.356-0.039
			c-1.015-0.076-2.033-0.152-3.076-0.23C32.903,70.121,31.893,70.07,31.01,69.904z"/>
		<path fill="#009FE3" d="M38.021,67.877c-1.935-0.045-3.718-0.336-5.555-0.584c-0.368,0.129-0.769,0.248-1.194,0.354
			c0.499,0.025,1.002,0.062,1.497,0.104c0.937,0.062,1.857,0.166,2.732,0.307c0.924,0.049,1.849,0.109,2.79,0.123l-0.135-0.07
			l0.728,0.082h0.078l-0.556-0.25L38.021,67.877z"/>
		<path fill="#009FE3" d="M29.071,72.752h0.004c-0.155-0.125-0.27-0.219-0.27-0.219C28.916,72.621,29.001,72.695,29.071,72.752z"/>
		<path fill="#009FE3" d="M114.12,10.216H10.218v103.899H114.12V10.216z M110.147,59.63c-0.069-0.006-0.135-0.01-0.205-0.012
			C109.956,59.5,109.98,59.442,110.147,59.63z M104.053,61.23c1.689-0.824,3.673-0.605,5.661-0.495
			c-0.102,0.192-0.217,0.385-0.335,0.573c-0.806-0.033-1.644,0.08-2.364,0.219c0.094-0.063,0.094-0.219,0.103-0.327
			C106.012,61.115,105.198,61.357,104.053,61.23z M42.557,27.388c0.184,0.219,0.27,0.386,0.364,0.56
			c-0.049,0.049-0.176-0.045-0.303-0.292c-0.057-0.125-0.123-0.25-0.167-0.348C42.467,27.32,42.5,27.345,42.557,27.388z
			 M23.594,51.192c-0.041,0.045-0.074,0.09-0.11,0.137c0-0.053,0.004-0.103-0.004-0.158L23.594,51.192z M23.332,52.102l1.067,0.188
			c-0.393,0.554-0.765,0.857-1.35,1.076C22.984,52.918,23.176,52.517,23.332,52.102z M22.641,53.319c0,0,0.18,0.031,0.368,0.065
			c-0.119,0.041-0.241,0.08-0.38,0.119L22.641,53.319z M21.049,56.667c0.021-0.186,0.225-0.149,0.43-0.117
			c0.041-0.376-0.127-0.783,0.119-1.125c0.2,0.035,0.609,0.108,0.814,0.144c0.258-0.655,0.172-1.366,0.217-2.06
			c2.221,1.867-0.086,2.231-1.19,4.178C21.049,57.503,20.865,57.133,21.049,56.667z M110.266,73.137
			c-1.972-0.08-3.943-0.115-5.906-0.123l0.008,0.008c0.078,0.031,0.094,0.086,0.008,0.121c-0.078,0.031-0.229,0.029-0.311-0.002
			c-0.09-0.039-0.082-0.092-0.004-0.127c-1.833-0.004-3.653,0.057-5.473,0.088c-1.82,0.016-3.632,0.062-5.428,0.133
			c3.333,0.127,6.667,0.258,10.001,0.387c0.364-0.057,0.728-0.113,1.101-0.168c0.098-0.006,0.229,0.025,0.27,0.074
			c0.025,0.041-0.049,0.09-0.151,0.1l-0.307,0.041c0.63,0.037,1.113,0.258,1.101,0.52c-0.037,0.271-0.581,0.469-1.24,0.443
			c-1.755,0.006-3.509,0.016-5.26-0.033l-0.573,0.02l-0.568,0.1c2.716,0.244,5.44,0.375,8.144,0.59c0.229,0,0.43,0.084,0.43,0.178
			c0.008,0.09-0.184,0.168-0.413,0.164c-2.389,0.129-4.794,0.258-7.208,0.307c-2.414,0.02-4.831,0.01-7.256-0.018
			c-1.6,0.328-3.211,0.66-4.839,0.992c0.201,0.016,0.405,0.025,0.614,0.039c2.63,0.125,5.08-0.049,7.502-0.252
			c2.421-0.203,4.818-0.416,7.379-0.51c0.131-0.01,0.233,0.037,0.25,0.082c0.012,0.045-0.074,0.096-0.205,0.092
			c-2.503,0.127-4.782,0.404-7.26,0.555c-2.049,0.139-4,0.258-5.915,0.475c3.894,0.061,7.633-0.219,11.499-0.322
			c0.167-0.02,0.339,0.01,0.446,0.061c0.012-0.023,0.041-0.051,0.098-0.064c0.482-0.119,1.01-0.199,1.55-0.266
			c0.106-0.021,0.233,0.004,0.286,0.057c0.053,0.041-0.008,0.086-0.126,0.109c-0.524,0.064-1.027,0.139-1.477,0.258
			c-0.082,0.02-0.176,0.014-0.245-0.012c0.028,0.082-0.07,0.152-0.262,0.184c-3.759,0.561-7.768,0.586-11.731,0.764
			c-0.025,0.064-0.082,0.125-0.172,0.182c-0.278,0.188-0.834,0.264-1.399,0.201l-0.425-0.07c-0.201-0.023-0.328-0.025-0.409-0.016
			c0.024,0.027,0.049,0.059,0.069,0.094c0.065,0.08,0.098,0.148,0.09,0.178c0.241,0.139,0.54,0.293,0.527,0.369
			c0.049,0,0.094-0.002,0.144-0.002c2.81-0.145,5.583-0.367,8.336-0.615c0.094-0.02,0.233-0.01,0.311,0.031
			c0.053,0.045,0.041,0.1-0.062,0.119c-2.826,0.574-5.387,1.332-8.349,1.801c1.538,1.795,3.011,3.498,4.647,5.363
			c0.79,0.896,1.559,1.775,2.323,2.645c0.765,0.857,1.518,1.707,2.266,2.547c1.493,1.689,2.958,3.391,4.422,5.189
			c0.405,0.471,0.683,0.971,0.609,1.1c-0.069,0.133-0.466-0.146-0.871-0.621c-3.244-3.654-6.52-7.227-9.703-11.006
			c-1.432-1.686-2.863-3.395-4.291-5.121c-0.053,0.006-0.106,0.012-0.159,0.02c0.515,0.648,1.031,1.301,1.534,1.967
			c1.514,2.01,2.79,3.881,4.107,5.789c1.91,2.275,3.882,4.475,5.821,6.748c0.086,0.088,0.151,0.193,0.155,0.238
			c0,0.053-0.065,0.014-0.147-0.074c-1.439-1.496-2.884-3.059-4.319-4.645c0.131,0.305,0.164,0.518,0.033,0.559
			c-0.127,0.045-0.393-0.098-0.712-0.365l0.904,1.129c0.184,0.23,0.291,0.439,0.229,0.463c-0.062,0.031-0.258-0.127-0.434-0.35
			c-1.244-1.521-2.454-3.064-3.665-4.611c-1.518-1.822-3.027-3.635-4.549-5.457c0.131,0.299,0.188,0.541,0.156,0.689
			c0.229,0.287,0.458,0.57,0.687,0.854c2.238,2.523,4.434,5.123,6.651,7.719c2.226,2.594,4.414,5.236,6.562,7.922
			c0.082,0.104,0.135,0.203,0.11,0.221s-0.11-0.053-0.184-0.143c-1.297-1.627-2.61-3.23-3.931-4.822V94.4
			c0.041,0.078,0.021,0.104-0.057,0.045c-0.065-0.051-0.167-0.178-0.201-0.25c-0.049-0.084-0.012-0.094,0.049-0.043
			c-1.231-1.484-2.491-2.941-3.734-4.402c-1.24-1.467-2.483-2.916-3.735-4.354c2.192,2.744,4.381,5.479,6.569,8.217
			c0.274,0.275,0.544,0.555,0.822,0.836c0.074,0.076,0.147,0.195,0.147,0.244c0,0.035-0.073-0.01-0.147-0.094l-0.229-0.234
			c0.409,0.523,0.625,0.982,0.487,1.053c-0.156,0.053-0.618-0.328-1.051-0.863c-1.19-1.422-2.381-2.838-3.539-4.271l-0.393-0.453
			l-0.442-0.436c1.121,1.48,2.262,2.951,3.396,4.416c1.219,1.391,2.421,2.799,3.624,4.277c0.405,0.471,0.679,0.965,0.609,1.1
			c-0.074,0.133-0.462-0.148-0.871-0.619c-1.473-1.662-2.954-3.307-4.426-4.959c-0.028,0.004-0.098-0.049-0.171-0.139
			c-1.755-1.986-3.428-3.746-5.179-5.703c-0.712-0.795-1.407-1.572-2.098-2.332c0.335,0.459,0.663,0.912,0.981,1.359
			c1.595,1.842,3.203,3.664,4.814,5.533c0.123,0.135,0.225,0.279,0.274,0.383c0.017,0,0.053,0.021,0.094,0.055
			c0.384,0.357,0.785,0.762,1.182,1.174c0.078,0.082,0.155,0.193,0.167,0.252c0.013,0.055-0.053,0.021-0.143-0.066
			c-0.389-0.408-0.761-0.791-1.125-1.117c-0.062-0.064-0.123-0.139-0.16-0.203c-0.021,0.049-0.127-0.01-0.266-0.156
			c-1.002-1.018-1.992-2.088-2.974-3.18c0.172,0.246,0.339,0.494,0.516,0.742c1.91,2.281,3.882,4.477,5.82,6.754
			c0.082,0.084,0.147,0.188,0.151,0.238c0.004,0.049-0.057,0.014-0.143-0.076c-1.444-1.5-2.879-3.059-4.324-4.643
			c0.139,0.303,0.164,0.516,0.037,0.555c-0.127,0.045-0.389-0.1-0.712-0.363l0.904,1.121c0.184,0.232,0.29,0.443,0.229,0.469
			c-0.062,0.031-0.258-0.127-0.434-0.35c-1.248-1.521-2.455-3.066-3.665-4.613c-1.068-1.281-2.135-2.564-3.203-3.846
			c-0.396-0.371-0.797-0.754-1.194-1.137c0.012,0.084,0.017,0.156,0.004,0.217c0.225,0.285,0.458,0.572,0.687,0.855
			c2.237,2.52,4.434,5.115,6.651,7.715c2.221,2.596,4.414,5.234,6.561,7.924c0.086,0.104,0.135,0.203,0.111,0.219
			c-0.025,0.018-0.111-0.047-0.184-0.141c-1.297-1.625-2.606-3.23-3.935-4.82l0.004,0.008c0.041,0.072,0.021,0.1-0.057,0.045
			c-0.065-0.057-0.168-0.18-0.205-0.254c-0.045-0.084-0.012-0.09,0.057-0.043c-1.235-1.48-2.495-2.939-3.739-4.404
			c-1.239-1.463-2.483-2.916-3.734-4.352c2.192,2.738,4.381,5.477,6.569,8.215c0.274,0.281,0.548,0.555,0.822,0.838
			c0.069,0.08,0.143,0.195,0.147,0.24c0,0.037-0.078-0.008-0.151-0.088l-0.229-0.236c0.413,0.523,0.63,0.982,0.491,1.057
			c-0.159,0.051-0.622-0.33-1.051-0.871c-1.194-1.42-2.38-2.834-3.538-4.27l-0.396-0.453l-0.438-0.436
			c1.718,2.279,3.493,4.52,5.215,6.773c0.16,0.189,0.25,0.377,0.208,0.408c-0.045,0.031-0.208-0.102-0.364-0.285
			c-1.677-1.893-3.362-3.801-5.019-5.742c-1.636-1.941-3.268-3.898-4.892-5.875c-1.244-1.195-2.495-2.396-3.759-3.609
			c0.131,0.166,0.266,0.342,0.397,0.51c1.718,2.166,3.456,4.092,5.19,5.992c1.734,1.895,3.461,3.773,5.236,5.814
			c0.09,0.1,0.143,0.199,0.131,0.227c-0.016,0.029-0.098-0.031-0.184-0.137c-1.754-1.986-3.428-3.744-5.178-5.703
			c-1.452-1.617-2.831-3.16-4.226-4.641c2.602,3.174,5.26,6.109,7.923,9.205c0.123,0.133,0.225,0.277,0.27,0.381
			c0.021,0,0.057,0.016,0.098,0.059c0.384,0.355,0.781,0.756,1.182,1.174c0.078,0.076,0.151,0.193,0.164,0.248
			c0.016,0.059-0.049,0.016-0.139-0.066c-0.389-0.408-0.761-0.795-1.125-1.115c-0.065-0.062-0.123-0.141-0.159-0.205
			c-0.021,0.053-0.127-0.014-0.266-0.158c-2.814-2.863-5.534-6.1-8.304-9.254c-0.049-0.002-0.119-0.027-0.2-0.082
			c-0.282-0.168-0.695-0.59-1.047-1.072l-0.25-0.361c-0.834-1.135-0.021,0.377-0.114,0.424c0.028,0.031,0.061,0.068,0.094,0.102
			c1.968,2.236,3.952,4.41,5.931,6.561c0.074,0.068,0.16,0.188,0.192,0.262c0.012,0.059-0.021,0.064-0.098-0.012
			c-2.688-2.594-5.24-4.764-8.062-7.803c-0.503-0.535-0.994-1.08-1.489-1.619c-0.769,0.059-1.538,0.119-2.307,0.184
			c-2.446-0.049-4.81-0.006-7.17,0.098c-2.34,0.195-4.663,0.371-7.158,0.652c-6.7,0.686-13.175,1.264-20.051,1.557
			c-2.594,0.207-4.966-0.432-5.313-1.471c-0.201-0.627,0.393-1.174,1.439-1.605C32.994,81.1,32.789,81.1,32.581,81.1l-1.002-0.125
			c-0.945-0.121-1.75-0.379-2.258-0.727l-0.691-0.43c-0.458-0.408-1.063-0.773-1.64-1.164c-0.581-0.402-1.133-0.811-1.501-1.258
			l0.176-0.303l-0.176-0.104c-0.581-0.262-0.965-0.586-1.092-0.918l0.069-0.383c0.135-0.434,0.438-0.836,0.912-1.205
			c-0.012-0.164,0.045-0.324,0.172-0.467c-0.389-0.41-0.56-0.836-0.241-1.283c-0.233-0.121-0.188-0.289,0.098-0.371
			c0.094-0.033,0.213-0.045,0.332-0.045h-0.004c-0.126-0.107-0.164-0.137-0.339-0.26c-0.229-0.051-0.364-0.076-0.364-0.076
			c-0.618-0.104-0.618-0.104-1.153-0.191c-0.458-0.156-0.74-0.359-0.74-0.359c-0.483-0.711-0.483-0.711-0.393-1.008
			c0.033-0.025,0.066-0.055,0.103-0.08c-0.401-0.119-0.43-0.133-0.54-0.162c-0.11-0.057-0.188-0.121-0.188-0.121
			c-0.008-0.164-0.008-0.164-0.078-0.225c-0.021-0.062-0.008-0.121-0.008-0.121c0.233-0.168,0.233-0.168,0.237-0.217
			c0.057-0.049,0.135-0.084,0.135-0.084c0.266-0.037,0.372-0.055,0.417-0.062c-0.033-0.023-0.065-0.053-0.103-0.08
			c0,0,0.065,0.027,0.156,0.062c0.016-0.006,0.049-0.023,0.114-0.055c0.274,0,0.454,0.072,0.642,0.143
			c0.012,0.111-0.126,0.18-0.393,0.07c-0.135-0.059-0.266-0.113-0.364-0.158c-0.021,0.014-0.025,0.014-0.025,0.014s0,0-0.028,0.004
			c0.552,0.439,0.552,0.439,0.552,0.439l0.131-0.131l0.126,0.193l-0.069-0.178l0.282,0.123l-0.323-0.172
			c0.679,0.094,0.679,0.094,0.953,0.104c0.282,0.033,0.523,0.004,0.552,0c-0.021-0.055-0.021-0.094-0.021-0.094
			c0.724,0.109,0.724,0.109,1.436,0.213c0.062,0.043,0.111,0.08,0.16,0.127c0.07-0.047,0.205-0.072,0.348-0.049
			c0.123,0.016,0.246,0.039,0.373,0.049c0.028-0.01,0.053-0.02,0.082-0.025c-0.004-0.01-0.004-0.018-0.004-0.018
			c0.131-0.031,0.217-0.051,0.319-0.076c0.062-0.021,0.065-0.021,0.065-0.021h0.004c0.217-0.053,0.532-0.135,1.37-0.344
			c0.221,0.016,0.425,0.049,0.622,0.084c-0.061-0.029-0.119-0.055-0.18-0.08c-0.119-0.062-0.008-0.207-0.078-0.227
			c-0.773-0.168-1.591-0.277-2.414-0.387c-0.315-0.045-0.634-0.1-0.953-0.148c-0.102,0.029-0.196,0.064-0.282,0.105
			c0.041,0.008,0.086,0.018,0.127,0.027c-0.058,0.018-0.115,0.035-0.172,0.057c0.638,0.201,1.28,0.41,1.951,0.568
			c0.192,0.033,0.266,0.129,0.184,0.203c-0.098,0.082-0.323,0.113-0.507,0.074c-0.933-0.168-1.886-0.338-2.831-0.51
			c-0.201,0.023-0.421,0.033-0.65,0.016c-0.826-0.066-1.436-0.393-1.358-0.732c-0.037-0.238-0.209-0.502,0.008-0.693
			c0.401-0.357,1.101-0.525,1.886-0.586l-0.233-0.084c-1.514-0.52-1.836-1.41-0.765-2.002c1.072-0.611,3.105-0.617,4.626-0.168
			c-0.053-0.062-0.11-0.129-0.167-0.188c0.491,0.01,0.928,0.094,1.374,0.178c-0.298-0.098-0.605-0.203-0.9-0.301
			c1.53,0.277,2.921,0.639,4.066,1.158c0.131,0.055,0.34,0.074,0.516,0.111c0.425,0.004,0.79,0.082,1.035,0.205
			c1.853,0.094,3.641,0.311,5.122,0.734c0.65-0.021,1.276,0.025,1.8,0.172h0.028c-0.135-0.074-0.27-0.139-0.405-0.213
			c0.487,0.035,0.752,0.213,1.194,0.271l-0.172-0.307c2.397,0.084,5.015-0.178,7.273,0.156c0.09,0.008,0.176,0.012,0.262,0.014
			c0.965-0.273,1.939-0.541,3.092-0.635c-0.393-0.016-0.773-0.025-1.166-0.039c0.83-0.188,1.661-0.322,2.557-0.355
			c2.454-0.064,5.195,0.277,6.516,1.107l0.614-0.02c-0.127-0.148-0.25-0.291-0.376-0.434c-1.248-1.363-2.475-2.721-3.775-4.121
			c-2.34-0.102-4.688-0.251-7.101-0.505c-0.814-0.084-1.46,0.415-2.278,0.332c-0.826-0.049-1.64-0.104-2.45-0.148
			c-0.004,0.043,0.004,0.084,0.024,0.125c-1.693-0.037-3.378-0.07-5.076-0.109c-1.706-0.018-3.432,0.014-5.211,0.102
			c-1.653-0.018-3.285-0.405-4.941-0.72c-0.622-0.106-0.556-0.859-0.953-1.117c-1.566-1.227-2.732-2.192-4.544-2.886
			c0,0,0.037-0.376,0.053-0.564c-0.287,0.019-0.54-0.035-0.745-0.129c1.092-1.955,3.391-2.321,1.17-4.185v-0.008
			c0.139-0.032,0.262-0.075,0.376-0.118c0.016,0,0.033,0.004,0.041,0.004v-0.021c0.584-0.219,0.953-0.523,1.346-1.08l-1.068-0.184
			c0.094-0.252,0.164-0.505,0.151-0.777c0.033-0.045,0.07-0.09,0.106-0.137c0.16,0.029,0.291,0.053,0.291,0.053
			c0.065-0.137,0.114-0.272,0.155-0.411c1.002-0.648,2.5-0.816,2.291-1.645c-0.184-0.439-0.888-0.208-1.677-0.102
			c-0.041-0.076-0.086-0.149-0.135-0.213c1.023-0.012,0.123-1.317,0.745-1.396c0.802,0.137,1.62,0.092,2.421,0.227
			c3.256,0.62,6.054,0.703,9.314,0.568c0.147-0.004,0.291-0.008,0.434-0.012c1.285-0.033,2.503,0.074,3.739,0.286
			c-0.72-0.812-1.44-1.62-2.164-2.45c-1.853-2.031-3.146-4.147-2.871-4.755c0.167-0.356,0.842-0.041,1.759,0.673
			c-0.143-0.172-0.282-0.337-0.425-0.505l-0.614-0.851c-0.577-0.802-0.998-1.532-1.166-2.051l-0.258-0.693
			c-0.115-0.499-0.34-1.099-0.54-1.688c-0.192-0.593-0.368-1.17-0.397-1.604l0.27,0.049l-0.069-0.174
			c-0.266-0.555-0.368-0.961-0.291-1.168l0.237-0.065c0.303-0.024,0.704,0.094,1.203,0.366c0.074-0.063,0.188-0.063,0.344-0.006
			c-0.058-0.439,0.037-0.712,0.466-0.587c-0.094-0.227,0.017-0.244,0.25-0.041c0.082,0.074,0.164,0.164,0.245,0.258
			c0-0.004,0-0.004,0-0.004c-0.037-0.135-0.045-0.174-0.098-0.352c-0.135-0.202-0.212-0.323-0.212-0.323
			c-0.368-0.529-0.368-0.529-0.688-0.994c-0.233-0.417-0.319-0.704-0.319-0.704c0.021-0.616,0.021-0.614,0.225-0.634
			c0.033,0.019,0.07,0.039,0.106,0.06c-0.208-0.36-0.225-0.385-0.282-0.485c-0.049-0.11-0.065-0.19-0.065-0.19
			c0.074-0.058,0.074-0.058,0.057-0.133c0.017-0.035,0.049-0.047,0.049-0.047c0.241,0.137,0.241,0.137,0.27,0.131
			c0.062,0.031,0.127,0.08,0.127,0.08c0.2,0.203,0.282,0.285,0.319,0.317c-0.012-0.033-0.021-0.07-0.029-0.104
			c0,0,0.025,0.059,0.07,0.141c0.016,0.014,0.045,0.037,0.106,0.078c0.184,0.223,0.27,0.391,0.364,0.564
			c-0.049,0.041-0.176-0.049-0.298-0.296c-0.065-0.125-0.127-0.254-0.172-0.346c-0.021-0.012-0.025-0.012-0.025-0.012
			s0,0-0.016-0.024c0.155,0.581,0.155,0.589,0.155,0.589l0.151,0.059l-0.008,0.16l0.041-0.104l0.131,0.264l-0.135-0.313
			c0.413,0.579,0.413,0.579,0.593,0.802c0.171,0.241,0.352,0.425,0.372,0.45c0.012-0.035,0.033-0.049,0.033-0.049
			c0.319,0.45,0.405,0.57,0.589,0.838l-0.024-0.069c-0.11-0.229-0.188-0.428-0.237-0.605c-0.135-0.198-0.266-0.395-0.396-0.589
			c-0.151-0.154-0.307-0.332-0.45-0.526c-0.528-0.687-0.777-1.278-0.556-1.321c0.09-0.1,0.102-0.321,0.343-0.208
			c0.442,0.219,0.994,0.722,1.555,1.333l-0.11-0.203c-0.769-1.382-0.548-1.922,0.466-1.239c0.446,0.299,0.961,0.788,1.468,1.352
			c-0.303-0.44-0.327-0.471-0.626-0.902c-0.233-0.421-0.323-0.712-0.323-0.712c0.024-0.614,0.024-0.609,0.233-0.626
			c0.033,0.012,0.069,0.035,0.106,0.055c-0.213-0.362-0.229-0.386-0.287-0.484c-0.045-0.108-0.069-0.192-0.069-0.192
			c0.078-0.06,0.078-0.06,0.062-0.131c0.016-0.037,0.049-0.045,0.049-0.045c0.242,0.135,0.242,0.135,0.27,0.126
			c0.062,0.033,0.127,0.082,0.127,0.082c0.2,0.2,0.282,0.282,0.319,0.317c-0.012-0.035-0.021-0.069-0.028-0.108
			c0,0,0.024,0.06,0.069,0.147c-0.021-0.015-0.021-0.015-0.021-0.015s0-0.004-0.021-0.024c0.151,0.585,0.156,0.585,0.156,0.585
			l0.151,0.063l-0.008,0.164l0.041-0.112l0.131,0.268l-0.135-0.313c0.413,0.579,0.413,0.579,0.593,0.798
			c0.176,0.241,0.352,0.425,0.376,0.45c0.008-0.031,0.028-0.045,0.028-0.045c0.438,0.616,0.438,0.616,0.863,1.225
			c0.024,0.063,0.041,0.119,0.053,0.172c0.065,0.039,0.172,0.147,0.253,0.264c0.078,0.104,0.147,0.212,0.229,0.315
			c0.025,0.021,0.045,0.041,0.065,0.059c0.004-0.004,0.008-0.008,0.008-0.008c0.098,0.094,0.172,0.162,0.253,0.233
			c0.053,0.045,0.053,0.045,0.053,0.045v0.004c0.176,0.162,0.43,0.395,1.101,1.004c0.135,0.184,0.262,0.362,0.376,0.53
			c-0.028-0.06-0.053-0.115-0.085-0.172c-0.049-0.11,0.098-0.072,0.061-0.125c-0.441-0.685-0.937-1.376-1.44-2.08
			c-0.196-0.276-0.388-0.554-0.581-0.833c-0.086-0.078-0.164-0.139-0.237-0.192c0.024,0.043,0.053,0.084,0.078,0.123
			c-0.049-0.039-0.094-0.08-0.143-0.123c0.331,0.583,0.663,1.164,1.039,1.757c0.11,0.164,0.114,0.258,0.021,0.213
			c-0.103-0.053-0.27-0.227-0.376-0.389c-0.548-0.804-1.104-1.632-1.665-2.448c-0.147-0.157-0.298-0.335-0.446-0.525
			c-0.527-0.688-0.777-1.283-0.56-1.321c0.094-0.104,0.11-0.323,0.348-0.208c0.446,0.214,0.994,0.72,1.554,1.333l-0.11-0.205
			c-0.769-1.385-0.548-1.925,0.462-1.237c1.023,0.677,2.401,2.323,3.211,3.693c-0.004-0.063-0.017-0.133-0.025-0.192
			c0.332,0.4,0.585,0.781,0.843,1.164c-0.151-0.272-0.307-0.55-0.458-0.818c0.9,1.323,1.657,2.561,2.176,3.651
			c0.066,0.119,0.197,0.296,0.299,0.45c0.286,0.345,0.491,0.663,0.593,0.896c1.207,1.532,2.311,3.045,3.104,4.375
			c0.446,0.52,0.851,1.039,1.129,1.509l0.021,0.024c-0.057-0.135-0.11-0.262-0.167-0.393c0.311,0.403,0.401,0.675,0.67,1.047
			l0.037-0.233c1.579,1.97,3.477,4.009,4.835,5.938c0.057,0.073,0.119,0.147,0.167,0.217c0.004,0.004,0.008,0.006,0.008,0.006
			c1.849-0.01,3.702-0.086,5.608-0.219c1.861-0.337,3.727-0.732,5.657-0.697c0.405,0.045,1.051-0.452,1.468-0.595
			c2.123-0.812,4.365-0.802,6.594-0.44l0.397-0.294c0.2,0.021,0.605,0.065,0.81,0.09l-0.634,0.307
			c-0.192-0.033-0.384-0.068-0.573-0.103c-0.167,0.129-0.343,0.251-0.511,0.376c4.418-0.521,8.787-1.06,13.536-1.491
			c1.174-0.051,2.52,0.092,3.698,0.223c-1.775,0.436-3.6,0.757-5.444,1.021c1.035,0.198,2.09,0.448,3.133,0.573l-0.065,0.031
			c0.986-0.178,1.959-0.38,2.925-0.614c0.049,0.008,0.106,0.01,0.16,0.019c-0.274,0.376-0.483,0.679-0.638,0.931
			c1.244-0.103-1.337,2.119,0,0c-0.315,0.024-0.884,0.2-1.833,0.644c-0.581-0.069-1.17-0.178-1.755-0.292
			c-0.049,0.037-0.106,0.08-0.155,0.125c-0.417,0.145-1.698,2.229-1.129,2.865c1.558,0.149,3.448,0.125,4.945,0.086
			c1.497-0.041,2.605-0.094,2.597,0c0.151,0.773-5.256,1.167-5.068,1.38c0.291,0.115,0.585,0.223,0.879,0.317
			c-0.294,0.121-0.581,0.248-0.851,0.397c-0.618,0.123-1.416-0.158-1.845,0.174c-1.493,0.972-3.092,0.411-4.761,0.984
			c-1.051,0.452-2.319,1.072-3.583,1.689c2.086-0.716,4.14-0.867,6.238-1.767c2.09-0.718,4.7-0.049,6.397-0.996l0.09-0.049
			c3.771,0.738,7.637,0.153,11.388,1.192c0.086,0.595,0.037,1.164-0.103,1.704c-3.526,0.062-7.301-0.706-10.623-0.055
			c-0.7,0.194-1.395,0.364-2.099,0.521c4.123-0.425,8.345-0.411,12.435,0.337c-0.094,0.221-0.201,0.44-0.319,0.652
			c-1.992-0.112-3.972-0.331-5.661,0.491c1.146,0.133,1.956-0.108,3.064-0.029c-0.008,0.113-0.008,0.266-0.106,0.33
			c0.72-0.137,1.559-0.25,2.369-0.217c-0.295,0.456-0.614,0.908-0.933,1.358c-0.43,0.335-1.035,0.266-1.661,0.389
			c-2.65,0.03-5.121-0.344-7.739-0.18c-2.307-0.327-4.602-0.659-6.864-0.877c-0.188,0.024-0.368,0.045-0.557,0.069
			c0.135-0.024,0.278-0.055,0.413-0.083c-4.254-0.407-8.385-0.411-12.173,0.716c-1.902,0.65-4.549,0.609-7.113,0.933
			c0.2,0.237,0.396,0.475,0.597,0.708c0.765-0.313,1.538-0.568,2.368-0.581c1.019,0.111,2.033,0.199,3.047,0.26
			c0.115-0.03,0.229-0.069,0.34-0.1c5.841-1.743,12.496-0.781,19.176,0.18c-0.409,0.022-0.818,0.061-1.235,0.117
			c-3.661,0.591-7.306,0.857-10.954,1.223c-2.201,0-4.41-0.018-6.626-0.119c-1.53,0.332-3.027,0.604-4.618,0.803
			c0.065,0.08,0.127,0.151,0.192,0.228c1.251,1.49,2.511,2.975,3.771,4.461c3.133,0.258,6.259,0.516,9.404,0.734
			c0.119,0.004,0.217,0.053,0.208,0.094c-0.008,0.053-0.115,0.084-0.246,0.072c-3.072-0.205-6.136-0.451-9.203-0.707
			c0.298,0.352,0.597,0.713,0.899,1.064c0.033,0.041,0.053,0.074,0.086,0.117c2.541,0.115,5.056,0.229,7.707,0.18
			c3.256-0.059,6.07-0.139,9.293-0.283c1.129-0.045,2.238-0.094,3.326-0.143c1.088-0.068,2.156-0.129,3.219-0.193
			c2.131-0.109,4.254-0.172,6.463-0.123c0.585-0.012,1.129,0.172,1.198,0.416c0.07,0.242-0.355,0.455-0.949,0.471
			c-4.614,0.252-9.175,0.652-13.863,0.684c-2.332,0.043-4.684,0.055-7.056,0.023c-2.385-0.035-4.794-0.111-7.24-0.258
			c-0.523-0.027-1.031-0.059-1.542-0.09c0.045,0.027,0.098,0.072,0.159,0.15c0.103,0.135,0.205,0.268,0.307,0.404
			c0.413,0.033,0.822,0.064,1.235,0.111c3.305-0.123,6.63-0.242,10.111,0.062c2.401,0.215,4.565,0.605,6.782,0.971
			c2.818-0.01,5.604-0.197,8.434-0.246c0.115-0.02,0.233,0.014,0.274,0.059c0.041,0.049-0.024,0.094-0.135,0.109
			c-1.951,0.256-3.951,0.439-5.968,0.598c0.315,0.156,0.499,0.357,0.47,0.572c-0.028,0.219-0.278,0.414-0.658,0.543l1.37,0.045
			c0.282,0.014,0.507,0.109,0.495,0.217c-0.008,0.121-0.237,0.199-0.503,0.189c-1.869-0.031-3.739-0.141-5.604-0.252
			c-2.25-0.004-4.491-0.004-6.737-0.008c0.307,0.164,0.528,0.354,0.634,0.564v0.004c0.348,0.012,0.695,0.021,1.043,0.031
			c3.182-0.176,6.405-0.217,9.641-0.277c3.235-0.074,6.492-0.062,9.76,0.072c0.131,0,0.237,0.043,0.237,0.094
			C110.483,73.102,110.385,73.141,110.266,73.137z M103.685,73.25c-0.09,0.035-0.229,0.029-0.307-0.004
			c-0.09-0.037-0.094-0.09-0.008-0.125c0.078-0.029,0.221-0.033,0.311,0.004C103.758,73.156,103.758,73.221,103.685,73.25z
			 M95.189,93.879c0.037,0.076,0.008,0.094-0.057,0.045c-0.074-0.062-0.168-0.182-0.205-0.252c-0.045-0.088-0.021-0.104,0.057-0.045
			C95.05,93.682,95.148,93.795,95.189,93.879z M91.291,95.816c-0.078-0.061-0.172-0.178-0.205-0.252
			c-0.049-0.086-0.021-0.1,0.058-0.045c0.065,0.055,0.159,0.168,0.204,0.254C91.389,95.842,91.356,95.867,91.291,95.816z"/>
		<path fill="#009FE3" d="M79.085,69.027c-0.332-0.016-0.667-0.039-0.994-0.059c0.086,0.113,0.176,0.223,0.258,0.338
			c0.049,0.059,0.098,0.119,0.147,0.182c0.319,0.027,0.638,0.059,0.961,0.088c-0.098-0.127-0.196-0.252-0.291-0.377
			C79.105,69.121,79.081,69.062,79.085,69.027z"/>
		<path fill="#009FE3" d="M86.28,78.498c-0.041,0.035,0.029,0.096,0.143,0.17c-0.024-0.025-0.049-0.045-0.069-0.074
			C86.325,78.561,86.3,78.529,86.28,78.498z"/>
		<path fill="#009FE3" d="M81.981,81.387c0.716,0.871,1.423,1.756,2.119,2.668c1.043,1.205,2.086,2.367,3.129,3.51
			c0.441,0.477,0.879,0.957,1.317,1.434c-0.413-0.479-0.83-0.957-1.239-1.443c-1.518-1.777-3.027-3.578-4.537-5.408
			C82.508,81.893,82.247,81.641,81.981,81.387z"/>
		<path fill="#009FE3" d="M77.244,67.139c-0.229-0.018-0.458-0.033-0.688-0.053c0.106,0.129,0.201,0.258,0.307,0.387
			c0.233,0.277,0.474,0.555,0.708,0.832c0.246,0.016,0.495,0.023,0.736,0.033C77.952,67.943,77.6,67.541,77.244,67.139z"/>
		<path fill="#009FE3" d="M73.031,62.339c-0.057,0.008-0.119,0.01-0.18,0.018c1.166,1.511,2.344,3.021,3.554,4.536
			c0.221,0.016,0.442,0.035,0.667,0.055C75.714,65.426,74.373,63.887,73.031,62.339z"/>
		<path fill="#009FE3" d="M29.415,53.92c-0.196-0.035-0.409,0.108-0.577,0.303c0.212-0.041,0.438-0.096,0.663-0.156
			C29.472,54.022,29.439,53.974,29.415,53.92z"/>
		<polygon fill="#009FE3" points="25.79,76.867 26.347,75.881 25.745,76.822 		"/>
		<polygon fill="#009FE3" points="36.892,33.894 37.747,34.039 36.884,33.844 		"/>
		<path fill="#009FE3" d="M40.725,31.948L40.733,32l0.057,0.012c-0.012-0.021-0.029-0.035-0.041-0.057L40.725,31.948z"/>
		<path fill="#009FE3" d="M41.125,35.276c0,0,0,0,0,0.004c-0.041-0.168-0.074-0.287-0.074-0.287
			C41.081,35.108,41.105,35.202,41.125,35.276z"/>
		<path fill="#009FE3" d="M25.586,68.844c0.061,0.02,0.126,0.041,0.184,0.059c0.033-0.023,0.061-0.045,0.102-0.062
			c-0.053-0.016-0.102-0.027-0.155-0.035C25.667,68.812,25.631,68.828,25.586,68.844z"/>
		<path fill="#009FE3" d="M41.138,32.042c0.008,0.01,0.012,0.021,0.021,0.029l0.274,0.047c0-0.006-0.004-0.006-0.008-0.01
			L41.138,32.042z"/>
		<path fill="#009FE3" d="M47.67,34.073c0.258,0.489,0.413,0.9,0.552,1.292c0.258,0.27,0.524,0.555,0.769,0.851
			c0.675,0.808,1.317,1.599,1.939,2.383c-0.021-0.143,0.131,0.045,0.217,0.137c0.09,0.09,0.176,0.184,0.262,0.274
			c-0.646-0.843-1.301-1.694-1.963-2.565C48.844,35.673,48.182,34.836,47.67,34.073z"/>
		<path fill="#009FE3" d="M53.401,39.119c-1.285-1.579-2.344-3.107-3.46-4.666c-0.315-0.257-0.638-0.548-0.974-0.854
			c0.319,0.413,0.634,0.82,0.945,1.227c0.602,0.781,1.174,1.558,1.698,2.311c0.601,0.763,1.194,1.53,1.82,2.295l-0.053-0.131
			l0.45,0.616l0.057,0.06l-0.257-0.526L53.401,39.119z"/>
		<polygon fill="#009FE3" points="38.859,59.809 38.892,59.788 38.868,59.723 		"/>
		<path fill="#009FE3" d="M28.498,54.906c1.485,0.411,3.362,0.339,5.089,0.257c-1.375-0.462-3.248-0.393-5.056-0.401
			C28.515,54.816,28.502,54.861,28.498,54.906z"/>
		<path d="M128.407,56.33c0.65,0.74,1.469,1.339,2.462,1.79c0.994,0.45,2.16,0.673,3.501,0.673c1.333,0,2.5-0.223,3.493-0.673
			c0.994-0.45,1.816-1.049,2.467-1.79c0.65-0.747,1.133-1.6,1.448-2.565c0.315-0.965,0.474-1.965,0.474-2.998V37.984h-2.838v12.609
			c0,0.689-0.086,1.372-0.258,2.049c-0.172,0.679-0.454,1.286-0.847,1.822c-0.393,0.536-0.912,0.965-1.562,1.289
			c-0.65,0.325-1.444,0.489-2.377,0.489c-0.961,0-1.755-0.164-2.397-0.489c-0.638-0.323-1.158-0.753-1.546-1.289
			c-0.393-0.536-0.675-1.144-0.847-1.822c-0.172-0.677-0.258-1.36-0.258-2.049V37.984h-2.839v12.783
			c0,1.033,0.155,2.033,0.475,2.998C127.274,54.73,127.757,55.583,128.407,56.33z"/>
		<polygon points="149.874,41.708 149.931,41.708 160.652,58.276 164.236,58.276 164.236,37.984 161.397,37.984 161.397,54.207
			161.34,54.207 150.733,37.984 147.035,37.984 147.035,58.276 149.874,58.276 		"/>
		<path d="M180.745,50.22h1.673l4.406,8.056h5.73l-5.301-8.684c1.321-0.403,2.348-1.072,3.096-2.006
			c0.744-0.937,1.117-2.095,1.117-3.467c0-1.168-0.217-2.144-0.658-2.927c-0.439-0.783-1.027-1.416-1.764-1.892
			c-0.736-0.479-1.566-0.816-2.491-1.018c-0.929-0.199-1.882-0.299-2.855-0.299h-7.739v20.292h4.786V50.22z M180.72,41.938h2.618
			c0.364,0,0.745,0.028,1.137,0.088c0.397,0.055,0.749,0.167,1.068,0.327c0.315,0.164,0.577,0.395,0.777,0.689
			c0.201,0.297,0.303,0.683,0.303,1.162c0,0.515-0.11,0.937-0.331,1.262c-0.221,0.323-0.503,0.571-0.851,0.745
			c-0.344,0.174-0.728,0.292-1.153,0.36c-0.421,0.065-0.831,0.1-1.239,0.1h-2.328V41.938z"/>
		<polygon points="209.696,54.092 200.265,54.092 200.265,49.879 208.69,49.879 208.69,45.952 200.265,45.952 200.265,42.109
			209.181,42.109 209.181,37.984 195.536,37.984 195.536,58.276 209.696,58.276 		"/>
		<polygon points="217.265,58.276 222.165,58.276 222.165,42.168 227.899,42.168 227.899,37.984 211.528,37.984 211.528,42.168
			217.265,42.168 		"/>
		<path d="M235.462,50.22h1.674l4.404,8.056h5.73l-5.301-8.684c1.322-0.403,2.352-1.072,3.098-2.006
			c0.744-0.937,1.115-2.095,1.115-3.467c0-1.168-0.221-2.144-0.654-2.927c-0.441-0.783-1.031-1.416-1.768-1.892
			c-0.736-0.479-1.566-0.816-2.49-1.018c-0.928-0.199-1.881-0.299-2.855-0.299h-7.734v20.292h4.781V50.22z M235.438,41.938h2.617
			c0.363,0,0.744,0.028,1.137,0.088c0.396,0.055,0.748,0.167,1.068,0.327c0.318,0.164,0.576,0.395,0.777,0.689
			c0.199,0.297,0.303,0.683,0.303,1.162c0,0.515-0.111,0.937-0.332,1.262c-0.221,0.323-0.504,0.571-0.852,0.745
			c-0.344,0.174-0.727,0.292-1.152,0.36c-0.422,0.065-0.834,0.1-1.236,0.1h-2.33V41.938z"/>
		<path d="M254.581,54.292h7.857l1.574,3.984h5.445l-8.422-20.292h-4.762l-8.512,20.292h5.33L254.581,54.292z M258.565,43.397
			l2.523,6.968h-5.102L258.565,43.397z"/>
		<polygon points="273.813,58.276 278.718,58.276 278.718,42.168 284.45,42.168 284.45,37.984 268.083,37.984 268.083,42.168
			273.813,42.168 		"/>
		<path d="M288.618,55.855c0.984,0.947,2.15,1.675,3.496,2.194c1.35,0.516,2.814,0.773,4.402,0.773c1.586,0,3.059-0.258,4.414-0.773
			c1.354-0.519,2.527-1.248,3.514-2.194c0.98-0.949,1.75-2.084,2.307-3.411c0.551-1.328,0.83-2.794,0.83-4.401
			c0-1.624-0.279-3.09-0.83-4.397c-0.557-1.309-1.326-2.421-2.307-3.342c-0.986-0.917-2.16-1.624-3.514-2.119
			c-1.355-0.497-2.828-0.749-4.414-0.749c-1.588,0-3.053,0.252-4.402,0.749c-1.346,0.495-2.512,1.203-3.496,2.119
			c-0.982,0.92-1.752,2.033-2.303,3.342c-0.557,1.307-0.836,2.773-0.836,4.397c0,1.607,0.279,3.074,0.836,4.401
			C286.866,53.771,287.636,54.906,288.618,55.855z M291.142,45.58c0.277-0.767,0.674-1.423,1.189-1.965
			c0.516-0.544,1.129-0.971,1.838-1.286c0.703-0.319,1.488-0.477,2.348-0.477s1.648,0.157,2.367,0.477
			c0.713,0.315,1.326,0.742,1.834,1.286c0.506,0.542,0.902,1.199,1.186,1.965c0.291,0.763,0.434,1.585,0.434,2.463
			c0,0.916-0.143,1.763-0.434,2.536c-0.283,0.777-0.688,1.44-1.203,1.994s-1.125,0.986-1.832,1.307
			c-0.707,0.313-1.492,0.47-2.352,0.47s-1.645-0.157-2.348-0.47c-0.709-0.321-1.318-0.753-1.82-1.307
			c-0.508-0.554-0.908-1.217-1.191-1.994c-0.285-0.773-0.43-1.62-0.43-2.536C290.728,47.165,290.868,46.343,291.142,45.58z"/>
		<path d="M330.368,57.659c1.301-0.411,2.475-1.031,3.527-1.863c1.051-0.831,1.9-1.882,2.551-3.154
			c0.65-1.268,0.975-2.773,0.975-4.512c0-1.796-0.324-3.336-0.975-4.618c-0.65-1.278-1.5-2.33-2.551-3.152
			c-1.053-0.822-2.227-1.423-3.527-1.802c-1.301-0.382-2.598-0.575-3.898-0.575h-6.965v20.292h6.965
			C327.771,58.276,329.067,58.07,330.368,57.659z M322.343,55.786V40.446h3.555c1.223,0,2.357,0.167,3.4,0.503
			c1.039,0.333,1.934,0.822,2.691,1.462c0.756,0.64,1.342,1.436,1.762,2.395c0.422,0.953,0.631,2.062,0.631,3.324
			c0,1.2-0.209,2.284-0.631,3.239c-0.42,0.956-1.006,1.757-1.762,2.407c-0.758,0.648-1.652,1.144-2.691,1.489
			c-1.043,0.343-2.178,0.52-3.4,0.52H322.343z"/>
		<polygon points="354.765,55.753 344.157,55.753 344.157,48.991 353.733,48.991 353.733,46.555 344.157,46.555 344.157,40.475
			354.331,40.475 354.331,37.984 341.319,37.984 341.319,58.276 354.765,58.276 		"/>
		<path d="M139.439,88.844c1.501-0.436,2.851-1.115,4.045-2.035c1.198-0.92,2.16-2.094,2.892-3.523
			c0.732-1.432,1.096-3.127,1.096-5.098c0-2.115-0.373-3.895-1.117-5.334c-0.741-1.439-1.71-2.588-2.917-3.445
			c-1.207-0.857-2.585-1.471-4.127-1.842c-1.55-0.371-3.117-0.557-4.704-0.557h-8.127v22.484h8.385
			C136.408,89.494,137.934,89.275,139.439,88.844z M131.786,84.789V71.646h2.7c0.933,0,1.833,0.107,2.712,0.318
			s1.661,0.564,2.352,1.062c0.687,0.5,1.239,1.164,1.648,2c0.413,0.838,0.618,1.889,0.618,3.16c0,1.252-0.205,2.297-0.618,3.145
			c-0.409,0.846-0.961,1.525-1.648,2.035c-0.691,0.504-1.485,0.871-2.381,1.094c-0.904,0.223-1.84,0.328-2.814,0.328H131.786z"/>
		<polygon points="166.174,71.582 166.174,67.01 151.061,67.01 151.061,89.494 166.747,89.494 166.747,84.857 156.3,84.857
			156.3,80.188 165.635,80.188 165.635,75.84 156.3,75.84 156.3,71.582 		"/>
		<path d="M179.084,85.045c-0.286,0.191-0.622,0.328-1.002,0.416c-0.381,0.082-0.769,0.125-1.174,0.125
			c-0.888,0-1.783-0.227-2.683-0.684c-0.9-0.451-1.624-1.016-2.176-1.697l-3.555,3.617c0.994,1.041,2.246,1.84,3.747,2.402
			c1.501,0.561,3.06,0.838,4.667,0.838c1.101,0,2.168-0.146,3.207-0.441c1.035-0.297,1.959-0.748,2.761-1.367
			c0.81-0.613,1.448-1.391,1.926-2.336c0.471-0.939,0.712-2.055,0.712-3.348c0-1.121-0.221-2.059-0.667-2.807
			c-0.446-0.754-1.006-1.383-1.686-1.893s-1.428-0.916-2.254-1.223s-1.62-0.59-2.38-0.844c-0.532-0.168-1.006-0.334-1.428-0.492
			c-0.425-0.156-0.79-0.334-1.096-0.525c-0.307-0.189-0.54-0.412-0.7-0.666c-0.159-0.25-0.237-0.572-0.237-0.949
			c0-0.445,0.102-0.809,0.302-1.096c0.201-0.285,0.45-0.52,0.745-0.699s0.63-0.301,0.998-0.367c0.372-0.062,0.736-0.094,1.096-0.094
			c0.7,0,1.423,0.176,2.176,0.523c0.752,0.352,1.358,0.822,1.824,1.414l3.465-3.652c-0.994-0.912-2.156-1.6-3.477-2.066
			c-1.325-0.461-2.622-0.697-3.89-0.697c-1.063,0-2.11,0.133-3.146,0.398c-1.039,0.266-1.967,0.684-2.794,1.254
			c-0.826,0.572-1.493,1.299-2.004,2.191c-0.503,0.889-0.757,1.959-0.757,3.211c0,1.012,0.16,1.877,0.487,2.586
			c0.331,0.709,0.765,1.312,1.305,1.811c0.54,0.496,1.154,0.902,1.841,1.225c0.687,0.312,1.395,0.59,2.111,0.82
			c0.744,0.234,1.407,0.453,1.988,0.65c0.581,0.203,1.067,0.426,1.46,0.668c0.393,0.242,0.691,0.516,0.904,0.811
			s0.319,0.656,0.319,1.08c0,0.443-0.086,0.824-0.253,1.145C179.595,84.602,179.37,84.857,179.084,85.045z"/>
		<rect x="189.102" y="67.01" width="5.46" height="22.484"/>
		<path d="M201.675,69.6c-1.1,1.027-1.963,2.271-2.59,3.729c-0.621,1.459-0.936,3.092-0.936,4.893c0,1.775,0.307,3.393,0.924,4.844
			c0.613,1.447,1.465,2.691,2.553,3.727c1.092,1.037,2.393,1.844,3.91,2.414c1.51,0.574,3.166,0.857,4.967,0.857
			c1.738,0,3.342-0.18,4.814-0.535c1.467-0.365,2.756-0.826,3.857-1.402V76.221h-9.273V80.6h4.287v4.1
			c-0.488,0.209-1.016,0.363-1.588,0.461c-0.572,0.094-1.174,0.143-1.812,0.143c-1.1,0-2.078-0.178-2.936-0.525
			c-0.855-0.35-1.576-0.836-2.16-1.461c-0.582-0.627-1.023-1.369-1.318-2.236c-0.293-0.871-0.441-1.822-0.441-2.859
			c0-1.014,0.164-1.955,0.49-2.814c0.328-0.854,0.791-1.596,1.383-2.219c0.59-0.627,1.289-1.111,2.096-1.459
			c0.801-0.352,1.686-0.527,2.633-0.527c1.102,0,2.086,0.197,2.953,0.59c0.867,0.391,1.568,0.891,2.1,1.508l3.428-3.91
			c-0.953-0.908-2.193-1.629-3.715-2.174c-1.525-0.539-3.174-0.807-4.953-0.807c-1.713,0-3.312,0.275-4.793,0.826
			C204.067,67.783,202.774,68.57,201.675,69.6z"/>
		<path d="M223.396,67.01v14.004c0,1.355,0.225,2.59,0.666,3.701c0.447,1.109,1.08,2.062,1.906,2.857
			c0.826,0.793,1.832,1.414,3.02,1.855c1.186,0.447,2.52,0.67,4,0.67c1.461,0,2.789-0.223,3.984-0.67
			c1.193-0.441,2.217-1.062,3.064-1.855c0.846-0.795,1.5-1.748,1.955-2.857c0.453-1.111,0.682-2.346,0.682-3.701V67.01h-5.432
			v13.559c0,0.615-0.074,1.199-0.225,1.748c-0.143,0.551-0.389,1.041-0.729,1.477c-0.34,0.432-0.777,0.777-1.316,1.033
			c-0.541,0.254-1.191,0.379-1.951,0.379c-0.766,0-1.416-0.125-1.955-0.379c-0.541-0.256-0.975-0.602-1.301-1.033
			c-0.332-0.436-0.572-0.926-0.732-1.477c-0.16-0.549-0.238-1.133-0.238-1.748V67.01H223.396z"/>
		<path d="M253.183,67.01l-9.43,22.484h5.902l1.652-4.414h8.701l1.746,4.414h6.033l-9.334-22.484H253.183z M252.862,80.729
			l2.859-7.719l2.799,7.719H252.862z"/>
		<polygon points="275.124,67.01 269.663,67.01 269.663,89.494 283.827,89.494 283.827,84.764 275.124,84.764 		"/>
		<path d="M303.323,69.408c-1.207-0.857-2.582-1.471-4.127-1.842c-1.547-0.371-3.113-0.557-4.701-0.557h-8.127v22.484h8.381
			c1.547,0,3.068-0.219,4.572-0.65c1.502-0.436,2.852-1.115,4.051-2.035c1.193-0.92,2.156-2.094,2.893-3.523
			c0.727-1.432,1.092-3.127,1.092-5.098c0-2.115-0.373-3.895-1.113-5.334S304.53,70.266,303.323,69.408z M301.085,81.332
			c-0.412,0.846-0.965,1.525-1.648,2.035c-0.691,0.504-1.484,0.871-2.385,1.094s-1.836,0.328-2.814,0.328h-2.568V71.646h2.699
			c0.93,0,1.838,0.107,2.717,0.318c0.875,0.211,1.66,0.564,2.352,1.062c0.684,0.5,1.236,1.164,1.648,2
			c0.414,0.838,0.617,1.889,0.617,3.16C301.702,79.439,301.499,80.484,301.085,81.332z"/>
		<path d="M313.356,89.494l1.652-4.414h8.701l1.746,4.414h6.033l-9.338-22.484h-5.27l-9.428,22.484H313.356z M319.423,73.01
			l2.793,7.719h-5.648L319.423,73.01z"/>
		<path d="M350.321,69.408c-1.205-0.857-2.584-1.471-4.131-1.842s-3.113-0.557-4.699-0.557h-8.129v22.484h8.383
			c1.545,0,3.07-0.219,4.576-0.65c1.498-0.436,2.848-1.115,4.045-2.035c1.195-0.92,2.16-2.094,2.893-3.523
			c0.729-1.432,1.096-3.127,1.096-5.098c0-2.115-0.371-3.895-1.115-5.334C352.499,71.414,351.524,70.266,350.321,69.408z
			 M348.081,81.332c-0.41,0.846-0.963,1.525-1.648,2.035c-0.691,0.504-1.486,0.871-2.385,1.094c-0.9,0.223-1.838,0.328-2.811,0.328
			h-2.572V71.646h2.699c0.932,0,1.836,0.107,2.715,0.318c0.881,0.211,1.662,0.564,2.354,1.062c0.686,0.5,1.238,1.164,1.648,2
			c0.412,0.838,0.617,1.889,0.617,3.16C348.698,79.439,348.493,80.484,348.081,81.332z"/>
		<path fill="#FFFFFF" d="M22.641,53.319l-0.012,0.184c0.139-0.039,0.262-0.078,0.38-0.119
			C22.821,53.35,22.641,53.319,22.641,53.319z"/>
		<path fill="#FFFFFF" d="M23.594,51.192l-0.115-0.021c0.008,0.055,0.004,0.104,0.004,0.158
			C23.52,51.282,23.553,51.237,23.594,51.192z"/>
		<path fill="#FFFFFF" d="M22.628,53.509c-0.045,0.693,0.041,1.405-0.217,2.06c-0.205-0.035-0.614-0.108-0.814-0.144
			c-0.246,0.342-0.078,0.749-0.119,1.125c-0.205-0.033-0.409-0.069-0.43,0.117c-0.184,0.466,0,0.836,0.389,1.021
			C22.542,55.741,24.85,55.376,22.628,53.509z"/>
		<path fill="#FFFFFF" d="M24.399,52.29l-1.067-0.188c-0.156,0.415-0.348,0.816-0.282,1.264
			C23.635,53.147,24.007,52.844,24.399,52.29z"/>
		<path fill="#FFFFFF" d="M109.378,61.308c0.119-0.188,0.233-0.38,0.335-0.573c-1.988-0.11-3.972-0.329-5.661,0.495
			c1.146,0.127,1.959-0.115,3.064-0.031c0.012-0.119,0.033-0.174,0.205,0.019c-0.07-0.004-0.135-0.015-0.205-0.019
			c-0.008,0.108-0.008,0.264-0.103,0.327C107.734,61.387,108.573,61.275,109.378,61.308z"/>
		<path fill="#FFFFFF" d="M109.943,59.618c0.07,0.002,0.135,0.006,0.205,0.012C109.98,59.442,109.956,59.5,109.943,59.618z"/>
		<path fill="#FFFFFF" d="M97.479,46.991C96.142,49.11,98.723,46.889,97.479,46.991L97.479,46.991z"/>
		<path fill="#FFFFFF" d="M79.764,61.099c-0.573,0.131-1.133,0.258-1.685,0.386c2.217,0.101,4.426,0.119,6.626,0.119
			c3.648-0.366,7.293-0.632,10.954-1.223c0.417-0.056,0.826-0.094,1.235-0.117c-6.68-0.961-13.335-1.923-19.176-0.18
			c-0.111,0.031-0.225,0.07-0.34,0.1c2.712,0.174,5.404,0.203,8.091,0.199C83.572,60.575,81.666,60.792,79.764,61.099z"/>
		<path fill="#FFFFFF" d="M81.895,45.719c-0.205-0.024-0.61-0.069-0.81-0.09l-0.397,0.294c0.188,0.035,0.38,0.07,0.573,0.103
			L81.895,45.719z"/>
		<path fill="#FFFFFF" d="M25.827,68.924c0.057-0.021,0.114-0.039,0.172-0.057c-0.041-0.01-0.086-0.02-0.127-0.027
			c-0.041,0.018-0.069,0.039-0.102,0.062C25.79,68.908,25.811,68.912,25.827,68.924z"/>
		<path fill="#FFFFFF" d="M23.63,69.422c-0.188-0.07-0.368-0.143-0.642-0.143c-0.065,0.031-0.098,0.049-0.114,0.055
			c0.098,0.045,0.229,0.1,0.364,0.158C23.504,69.602,23.643,69.533,23.63,69.422z"/>
		<path fill="#FFFFFF" d="M22.874,69.334c-0.09-0.035-0.156-0.062-0.156-0.062c0.037,0.027,0.07,0.057,0.103,0.08
			c0.028-0.004,0.028-0.004,0.028-0.004S22.854,69.348,22.874,69.334z"/>
		<path fill="#FFFFFF" d="M103.378,73.246c0.078,0.033,0.217,0.039,0.307,0.004c0.074-0.029,0.074-0.094-0.004-0.125
			c-0.09-0.037-0.233-0.033-0.311-0.004C103.284,73.156,103.288,73.209,103.378,73.246z"/>
		<path fill="#FFFFFF" d="M39.08,29.844c-0.094-0.174-0.18-0.341-0.364-0.564c-0.062-0.041-0.09-0.063-0.106-0.078
			c0.045,0.092,0.106,0.221,0.172,0.346C38.904,29.795,39.031,29.885,39.08,29.844z"/>
		<path fill="#FFFFFF" d="M91.086,95.564c0.033,0.074,0.127,0.191,0.205,0.252c0.065,0.051,0.098,0.025,0.057-0.043
			c-0.045-0.086-0.139-0.199-0.204-0.254C91.065,95.465,91.037,95.479,91.086,95.564z"/>
		<path fill="#FFFFFF" d="M42.921,27.948c-0.094-0.174-0.18-0.341-0.364-0.56c-0.057-0.043-0.09-0.068-0.106-0.08
			c0.045,0.098,0.11,0.223,0.167,0.348C42.745,27.903,42.872,27.997,42.921,27.948z"/>
		<path fill="#FFFFFF" d="M94.927,93.672c0.037,0.07,0.131,0.189,0.205,0.252c0.065,0.049,0.094,0.031,0.057-0.045
			c-0.041-0.084-0.139-0.197-0.205-0.252C94.907,93.568,94.882,93.584,94.927,93.672z"/>
		<rect x="93.892" y="47.343" fill="#FFFFFF" width="0" height="0"/>
		<path fill="#FFFFFF" d="M93.242,56.471c0.229-0.039,0.458-0.076,0.683-0.115c-0.135-0.035-0.27-0.065-0.405-0.1
			c-0.287,0.045-0.577,0.086-0.863,0.129C92.853,56.416,93.045,56.444,93.242,56.471z"/>
		<path fill="#FFFFFF" d="M100.482,72.883c-3.236,0.061-6.459,0.102-9.641,0.277c-0.348-0.01-0.695-0.02-1.043-0.031v-0.004
			c-0.106-0.211-0.328-0.4-0.634-0.564c2.246,0.004,4.487,0.004,6.737,0.008c1.865,0.111,3.735,0.221,5.604,0.252
			c0.266,0.01,0.495-0.068,0.503-0.189c0.012-0.107-0.213-0.203-0.495-0.217l-1.37-0.045c0.38-0.129,0.63-0.324,0.658-0.543
			c0.029-0.215-0.155-0.416-0.47-0.572c2.017-0.158,4.017-0.342,5.968-0.598c0.111-0.016,0.176-0.061,0.135-0.109
			c-0.041-0.045-0.16-0.078-0.274-0.059c-2.831,0.049-5.616,0.236-8.434,0.246c-2.217-0.365-4.381-0.756-6.782-0.971
			c-3.481-0.305-6.807-0.186-10.111-0.062c-0.413-0.047-0.822-0.078-1.235-0.111c-0.103-0.137-0.205-0.27-0.307-0.404
			c-0.061-0.078-0.114-0.123-0.159-0.15c0.511,0.031,1.019,0.062,1.542,0.09c2.446,0.146,4.855,0.223,7.24,0.258
			c2.372,0.031,4.724,0.02,7.056-0.023c4.688-0.031,9.249-0.432,13.863-0.684c0.593-0.016,1.019-0.229,0.949-0.471
			c-0.069-0.244-0.613-0.428-1.198-0.416c-2.209-0.049-4.332,0.014-6.463,0.123c-1.063,0.064-2.131,0.125-3.219,0.193
			c-1.088,0.049-2.197,0.098-3.326,0.143c-3.223,0.145-6.038,0.225-9.293,0.283c-2.65,0.049-5.166-0.064-7.707-0.18
			c-0.033-0.043-0.053-0.076-0.086-0.117c-0.302-0.352-0.601-0.713-0.899-1.064c3.067,0.256,6.131,0.502,9.203,0.707
			c0.131,0.012,0.237-0.02,0.246-0.072c0.008-0.041-0.09-0.09-0.208-0.094c-3.146-0.219-6.271-0.477-9.404-0.734
			c-1.26-1.486-2.52-2.971-3.771-4.461c-0.065-0.076-0.127-0.147-0.192-0.228c1.591-0.199,3.088-0.471,4.618-0.803
			c-1.497-0.069-2.999-0.178-4.512-0.35c-0.332,0.012-0.65,0.057-0.965,0.127c-0.111-0.137-0.229-0.272-0.344-0.411
			c1.861-0.158,3.677-0.248,5.121-0.667c-1.014-0.061-2.029-0.149-3.047-0.26c-0.83,0.013-1.604,0.268-2.368,0.581
			c-0.201-0.233-0.397-0.47-0.597-0.708c2.564-0.323,5.211-0.282,7.113-0.933c3.788-1.127,7.919-1.123,12.173-0.716
			c2.14-0.438,4.344-0.802,6.578-1.035c-2.053,0.46-4.156,0.771-6.438,1.049l-0.139-0.014c-0.135,0.028-0.278,0.059-0.413,0.083
			c0.188-0.024,0.368-0.045,0.557-0.069c2.262,0.219,4.557,0.55,6.864,0.877c2.618-0.164,5.088,0.21,7.739,0.18
			c0.626-0.123,1.231-0.053,1.661-0.389c0.319-0.45,0.638-0.902,0.933-1.358c-0.81-0.033-1.648,0.08-2.369,0.217
			c0.098-0.063,0.098-0.217,0.106-0.33c-1.108-0.08-1.918,0.162-3.064,0.029c1.689-0.822,3.669-0.604,5.661-0.491
			c0.119-0.212,0.225-0.431,0.319-0.652c-4.09-0.749-8.312-0.763-12.435-0.337c0.704-0.157,1.399-0.327,2.099-0.521
			c3.321-0.65,7.097,0.117,10.623,0.055c0.139-0.54,0.188-1.108,0.103-1.704c-3.751-1.039-7.617-0.454-11.388-1.192l-0.09,0.049
			c-1.697,0.947-4.307,0.278-6.397,0.996c-2.098,0.899-4.152,1.051-6.238,1.767c2.929,0.328,5.735,0.233,8.598,0.896
			c0.892-0.129,1.788-0.248,2.688-0.346c-0.753,0.17-1.514,0.313-2.283,0.446c0.372,0.094,0.74,0.203,1.113,0.327l-1.215-0.135
			c-0.192-0.024-0.389-0.053-0.581-0.078c-1.292,0.21-2.618,0.391-4.021,0.558c1.125-0.241,2.274-0.454,3.436-0.644
			c-2.282-0.362-4.659-0.949-6.95-0.559c-1.231,0.421-2.822,0.442-4.262,0.827c-0.033,0.061-0.061,0.135-0.098,0.204
			c-0.102-0.02-0.208-0.049-0.315-0.073c-0.188,0.108-0.389,0.266-0.515,0.364c-1.489,0.244-2.99,0.585-4.541,0.663
			c-0.135,0.033-0.27,0.072-0.413,0.115c-0.417,0.139-1.01-0.115-1.416-0.162c0.622,0.069,1.227,0.074,1.829,0.047
			c1.771-0.534,3.17-1.429,5.056-1.026c0.131-0.07,0.25-0.121,0.327-0.11l0.086-0.021c0.564-1.049,1.89-0.9,3.031-0.771
			c-0.176-0.399,0.421-0.146,0.446-0.518V55.36c1.264-0.617,2.532-1.237,3.583-1.689c1.669-0.573,3.269-0.012,4.761-0.984
			c0.43-0.332,1.228-0.051,1.845-0.174c0.27-0.149,0.556-0.276,0.851-0.397c-0.294-0.094-0.589-0.202-0.879-0.317
			c-0.188-0.213,5.219-0.607,5.068-1.38c0.008-0.094-1.1-0.041-2.597,0c-1.497,0.039-3.387,0.063-4.945-0.086
			c-0.569-0.636,0.711-2.72,1.129-2.865c0.049-0.045,0.106-0.088,0.155-0.125l0,0l0,0c-0.462-0.094-0.924-0.188-1.382-0.276
			c-0.741,0.094-1.489,0.192-2.242,0.288c-1.207,0.133-2.426,0.266-3.649,0.399c0.332-0.119,0.667-0.256,1.002-0.399
			c0.16-0.094,0.327-0.166,0.495-0.233c1.334-0.536,2.839-0.354,4.394-0.055c0.847-0.121,1.689-0.262,2.523-0.407
			c-0.409,0.192-0.802,0.407-1.141,0.683l0,0l0,0c0.585,0.115,1.174,0.223,1.755,0.292c0.949-0.444,1.518-0.62,1.833-0.644
			c0.155-0.252,0.364-0.554,0.638-0.931c-0.053-0.008-0.11-0.01-0.16-0.019c-0.965,0.233-1.939,0.436-2.925,0.614l0.065-0.031
			C94.056,46.5,93,46.25,91.966,46.052c-1.939,0.28-3.907,0.493-5.891,0.691c0.335-0.123,0.671-0.258,1.002-0.401
			c1.456-0.808,3.137-0.624,4.888-0.291c1.845-0.264,3.669-0.585,5.444-1.021c-1.178-0.131-2.524-0.274-3.698-0.223
			c-4.749,0.432-9.118,0.97-13.536,1.491c-0.556,0.384-1.104,0.687-1.64,0.752c-1.239,0.242-2.655,0.082-3.886,0.133
			c0.176,0.396-0.43,0.327-0.442,0.519c-1.268,0.62-2.671,0.272-4.09,0.111c-0.205-0.022-0.188-0.209-0.385-0.389
			c3.637-0.332,7.052-0.726,10.443-1.127c0.168-0.125,0.344-0.248,0.511-0.376c-2.229-0.362-4.471-0.372-6.594,0.44
			c-0.417,0.143-1.063,0.64-1.468,0.595c-1.931-0.035-3.796,0.36-5.657,0.697c0.884-0.074,1.775-0.146,2.688-0.227l0.069-0.002
			c-2.041,1.556-4.585,1.027-7.084,0.699c-0.356-0.004-0.712-0.028-1.067-0.065c-0.029-0.022-0.053-0.043-0.078-0.067
			c0.38,0.039,0.761,0.082,1.146,0.133c1.46,0.019,2.892-0.208,4.328-0.47c-1.906,0.133-3.759,0.208-5.608,0.219
			c0,0-0.004-0.002-0.008-0.006c-0.049-0.07-0.11-0.144-0.167-0.217c-1.358-1.929-3.256-3.968-4.835-5.938l-0.037,0.233
			c-0.27-0.373-0.36-0.645-0.67-1.047c0.057,0.131,0.11,0.258,0.167,0.393l-0.021-0.024c-0.278-0.47-0.683-0.99-1.129-1.509
			c-0.793-1.33-1.898-2.843-3.104-4.375c-0.103-0.233-0.307-0.55-0.593-0.896c-0.102-0.154-0.233-0.332-0.299-0.45
			c-0.519-1.09-1.276-2.328-2.176-3.651c0.151,0.268,0.307,0.546,0.458,0.818c-0.258-0.382-0.511-0.763-0.843-1.164
			c0.008,0.059,0.021,0.128,0.025,0.192c-0.81-1.37-2.188-3.017-3.211-3.693c-1.01-0.688-1.231-0.147-0.462,1.237l0.11,0.205
			c-0.561-0.614-1.108-1.119-1.554-1.333c-0.237-0.115-0.254,0.104-0.348,0.208c-0.217,0.039,0.033,0.634,0.56,1.321
			c0.147,0.19,0.299,0.368,0.446,0.525c0.561,0.816,1.117,1.645,1.665,2.448c0.106,0.162,0.274,0.335,0.376,0.389
			c0.094,0.045,0.09-0.049-0.021-0.213c-0.376-0.593-0.708-1.174-1.039-1.757c0.049,0.043,0.094,0.084,0.143,0.123
			c-0.024-0.039-0.053-0.08-0.078-0.123c-0.037-0.024-0.074-0.045-0.102-0.065c0.012,0.024,0.024,0.041,0.033,0.065
			c-0.041-0.039-0.086-0.074-0.131-0.114c0.028,0.01,0.061,0.026,0.098,0.049c-0.033-0.053-0.062-0.108-0.094-0.162
			c0.037,0.033,0.074,0.063,0.11,0.103c0.029,0.041,0.057,0.083,0.086,0.125c0.074,0.053,0.151,0.115,0.237,0.192
			c0.192,0.278,0.384,0.556,0.581,0.833c0.503,0.704,0.999,1.395,1.44,2.08c0.037,0.053-0.11,0.015-0.061,0.125
			c0.033,0.057,0.057,0.112,0.085,0.172c-0.114-0.168-0.241-0.346-0.376-0.53c-0.671-0.609-0.925-0.843-1.101-1.004v-0.004
			c0,0,0,0-0.053-0.045c-0.082-0.072-0.155-0.139-0.253-0.233c0,0-0.004,0.004-0.008,0.008c-0.021-0.019-0.041-0.039-0.065-0.059
			c-0.082-0.103-0.151-0.211-0.229-0.315c-0.082-0.117-0.188-0.225-0.253-0.264c-0.012-0.053-0.029-0.108-0.053-0.172
			c-0.425-0.609-0.425-0.609-0.863-1.225c0,0-0.021,0.015-0.028,0.045c-0.025-0.025-0.201-0.209-0.376-0.45
			c-0.18-0.219-0.18-0.219-0.593-0.798l0.135,0.313l-0.131-0.268l-0.041,0.112l0.008-0.164l-0.151-0.063c0,0-0.004,0-0.156-0.585
			c-0.037-0.035-0.119-0.117-0.319-0.317c0,0-0.065-0.049-0.127-0.082c-0.028,0.008-0.028,0.008-0.27-0.126
			c0,0-0.033,0.008-0.049,0.045c0.016,0.071,0.016,0.071-0.062,0.131c0,0,0.024,0.084,0.069,0.192
			c0.058,0.098,0.074,0.123,0.287,0.484c-0.037-0.021-0.074-0.043-0.106-0.055c-0.208,0.017-0.208,0.012-0.233,0.626
			c0,0,0.09,0.291,0.323,0.712c0.299,0.431,0.323,0.462,0.626,0.902c-0.507-0.564-1.022-1.053-1.468-1.352
			c-1.015-0.683-1.235-0.143-0.466,1.239l0.11,0.203c-0.561-0.611-1.113-1.115-1.555-1.333c-0.241-0.112-0.253,0.108-0.343,0.208
			c-0.221,0.043,0.028,0.634,0.556,1.321c0.143,0.194,0.299,0.372,0.45,0.526c0.131,0.194,0.262,0.391,0.396,0.589
			c0.049,0.178,0.127,0.376,0.237,0.605l0.024,0.069c-0.184-0.268-0.27-0.389-0.589-0.838c0,0-0.021,0.014-0.033,0.049
			c-0.021-0.024-0.201-0.208-0.372-0.45c-0.18-0.223-0.18-0.223-0.593-0.802l0.135,0.313l-0.131-0.264l-0.041,0.104l0.008-0.16
			l-0.151-0.059c0,0,0-0.008-0.155-0.589c-0.037-0.033-0.119-0.115-0.319-0.317c0,0-0.065-0.049-0.127-0.08
			c-0.029,0.006-0.029,0.006-0.27-0.131c0,0-0.033,0.012-0.049,0.047c0.017,0.076,0.017,0.076-0.057,0.133
			c0,0,0.017,0.08,0.065,0.19c0.057,0.1,0.074,0.125,0.282,0.485c-0.037-0.021-0.074-0.041-0.106-0.06
			c-0.204,0.021-0.204,0.019-0.225,0.634c0,0,0.086,0.286,0.319,0.704c0.319,0.464,0.319,0.464,0.688,0.994
			c0,0,0.078,0.121,0.212,0.323c0.053,0.178,0.062,0.217,0.098,0.352c0,0,0,0,0,0.004c-0.082-0.094-0.164-0.184-0.245-0.258
			c-0.233-0.203-0.344-0.186-0.25,0.041c-0.429-0.125-0.523,0.147-0.466,0.587c-0.156-0.057-0.27-0.057-0.344,0.006
			c-0.499-0.272-0.9-0.391-1.203-0.366l-0.237,0.065c-0.078,0.207,0.024,0.613,0.291,1.168l0.069,0.174l-0.27-0.049
			c0.029,0.434,0.205,1.01,0.397,1.604c0.2,0.589,0.425,1.188,0.54,1.688l0.258,0.693c0.167,0.519,0.589,1.25,1.166,2.051
			l0.614,0.851c0.143,0.168,0.282,0.333,0.425,0.505c-0.917-0.714-1.591-1.029-1.759-0.673c-0.274,0.607,1.019,2.724,2.871,4.755
			c0.724,0.831,1.444,1.638,2.164,2.45c-1.235-0.212-2.454-0.319-3.739-0.286c-0.143,0.004-0.286,0.008-0.434,0.012
			c-3.26,0.135-6.058,0.051-9.314-0.568c-0.802-0.135-1.62-0.09-2.421-0.227c-0.622,0.08,0.278,1.384-0.745,1.396
			c0.049,0.063,0.094,0.137,0.135,0.213c0.789-0.106,1.493-0.337,1.677,0.102c0.209,0.829-1.288,0.996-2.291,1.645
			c-0.041,0.139-0.09,0.274-0.155,0.411c0,0-0.131-0.024-0.291-0.053c-0.037,0.047-0.074,0.092-0.106,0.137
			c0.012,0.272-0.057,0.525-0.151,0.777l1.068,0.184c-0.393,0.557-0.761,0.861-1.346,1.08v0.021c-0.008,0-0.025-0.004-0.041-0.004
			c-0.115,0.043-0.237,0.086-0.376,0.118v0.008c2.221,1.863-0.078,2.229-1.17,4.185c0.205,0.094,0.458,0.147,0.745,0.129
			c-0.017,0.188-0.053,0.564-0.053,0.564c1.812,0.693,2.978,1.659,4.544,2.886c0.397,0.258,0.332,1.01,0.953,1.117
			c1.657,0.315,3.289,0.703,4.941,0.72c1.779-0.088,3.505-0.119,5.211-0.102c1.698,0.039,3.383,0.072,5.076,0.109
			c-0.02-0.041-0.028-0.082-0.024-0.125c0.81,0.045,1.624,0.1,2.45,0.148c0.818,0.083,1.464-0.416,2.278-0.332
			c2.414,0.254,4.761,0.403,7.101,0.505c1.301,1.4,2.528,2.758,3.775,4.121c0.127,0.143,0.25,0.285,0.376,0.434l-0.614,0.02
			c-1.321-0.83-4.062-1.172-6.516-1.107c-0.896,0.033-1.727,0.168-2.557,0.355c0.393,0.014,0.773,0.023,1.166,0.039
			c-1.153,0.094-2.127,0.361-3.092,0.635c-0.086-0.002-0.172-0.006-0.262-0.014c-2.258-0.334-4.876-0.072-7.273-0.156l0.172,0.307
			c-0.442-0.059-0.708-0.236-1.194-0.271c0.135,0.074,0.27,0.139,0.405,0.213h-0.028c-0.524-0.146-1.149-0.193-1.8-0.172
			c-1.481-0.424-3.269-0.641-5.122-0.734c-0.245-0.123-0.609-0.201-1.035-0.205c-0.176-0.037-0.385-0.057-0.516-0.111
			c-1.145-0.52-2.536-0.881-4.066-1.158c0.294,0.098,0.602,0.203,0.9,0.301c-0.446-0.084-0.883-0.168-1.374-0.178
			c0.057,0.059,0.114,0.125,0.167,0.188c-1.521-0.449-3.555-0.443-4.626,0.168c-1.071,0.592-0.749,1.482,0.765,2.002l0.233,0.084
			c-0.785,0.061-1.484,0.229-1.886,0.586c-0.217,0.191-0.045,0.455-0.008,0.693c-0.078,0.34,0.532,0.666,1.358,0.732
			c0.229,0.018,0.45,0.008,0.65-0.016c0.945,0.172,1.898,0.342,2.831,0.51c0.184,0.039,0.409,0.008,0.507-0.074
			c0.082-0.074,0.008-0.17-0.184-0.203c-0.671-0.158-1.313-0.367-1.951-0.568c-0.053,0.014-0.106,0.031-0.16,0.049
			c0.021-0.025,0.07-0.045,0.103-0.07c-0.058-0.018-0.123-0.039-0.184-0.059c0.045-0.016,0.082-0.031,0.131-0.039
			c0.053,0.008,0.102,0.02,0.155,0.035c0.086-0.041,0.18-0.076,0.282-0.105c0.319,0.049,0.638,0.104,0.953,0.148
			c0.822,0.109,1.64,0.219,2.414,0.387c0.069,0.02-0.041,0.164,0.078,0.227c0.061,0.025,0.119,0.051,0.18,0.08
			c-0.196-0.035-0.401-0.068-0.622-0.084c-0.838,0.209-1.153,0.291-1.37,0.344h-0.004c0,0-0.004,0-0.065,0.021
			c-0.102,0.025-0.188,0.045-0.319,0.076c0,0,0,0.008,0.004,0.018c-0.029,0.006-0.053,0.016-0.082,0.025
			c-0.127-0.01-0.25-0.033-0.373-0.049c-0.143-0.023-0.278,0.002-0.348,0.049c-0.049-0.047-0.098-0.084-0.16-0.127
			c-0.711-0.104-0.711-0.104-1.436-0.213c0,0,0,0.039,0.021,0.094c-0.029,0.004-0.27,0.033-0.552,0
			c-0.274-0.01-0.274-0.01-0.953-0.104l0.323,0.172l-0.282-0.123l0.069,0.178l-0.126-0.193l-0.131,0.131c0,0,0,0-0.552-0.439
			c-0.045,0.008-0.151,0.025-0.417,0.062c0,0-0.078,0.035-0.135,0.084c-0.004,0.049-0.004,0.049-0.237,0.217
			c0,0-0.012,0.059,0.008,0.121c0.069,0.061,0.069,0.061,0.078,0.225c0,0,0.078,0.064,0.188,0.121
			c0.11,0.029,0.139,0.043,0.54,0.162c-0.037,0.025-0.07,0.055-0.103,0.08c-0.09,0.297-0.09,0.297,0.393,1.008
			c0,0,0.282,0.203,0.74,0.359c0.536,0.088,0.536,0.088,1.153,0.191c0,0,0.135,0.025,0.364,0.076
			c0.176,0.123,0.213,0.152,0.339,0.26h0.004c-0.119,0-0.237,0.012-0.332,0.045c-0.286,0.082-0.332,0.25-0.098,0.371
			c-0.319,0.447-0.147,0.873,0.241,1.283c-0.126,0.143-0.184,0.303-0.172,0.467c-0.474,0.369-0.777,0.771-0.912,1.205l-0.069,0.383
			c0.127,0.332,0.511,0.656,1.092,0.918l0.176,0.104l-0.176,0.303c0.368,0.447,0.92,0.855,1.501,1.258
			c0.577,0.391,1.182,0.756,1.64,1.164l0.691,0.43c0.507,0.348,1.313,0.605,2.258,0.727l1.002,0.125c0.208,0,0.413,0,0.625-0.002
			c-1.047,0.432-1.64,0.979-1.439,1.605c0.348,1.039,2.72,1.678,5.313,1.471c6.876-0.293,13.351-0.871,20.051-1.557
			c2.495-0.281,4.818-0.457,7.158-0.652c2.36-0.104,4.725-0.146,7.17-0.098c0.769-0.064,1.538-0.125,2.307-0.184
			c0.495,0.539,0.986,1.084,1.489,1.619c2.823,3.039,5.375,5.209,8.062,7.803c0.078,0.076,0.11,0.07,0.098,0.012
			c-0.033-0.074-0.119-0.193-0.192-0.262c-1.979-2.15-3.963-4.324-5.931-6.561c-0.033-0.033-0.065-0.07-0.094-0.102
			c0.094-0.047-0.72-1.559,0.114-0.424l0.25,0.361c0.352,0.482,0.765,0.904,1.047,1.072c0.082,0.055,0.151,0.08,0.2,0.082
			c2.77,3.154,5.49,6.391,8.304,9.254c0.139,0.145,0.246,0.211,0.266,0.158c0.037,0.064,0.094,0.143,0.159,0.205
			c0.364,0.32,0.736,0.707,1.125,1.115c0.09,0.082,0.155,0.125,0.139,0.066c-0.012-0.055-0.086-0.172-0.164-0.248
			c-0.401-0.418-0.798-0.818-1.182-1.174c-0.041-0.043-0.078-0.059-0.098-0.059c-0.045-0.104-0.147-0.248-0.27-0.381
			c-2.663-3.096-5.322-6.031-7.923-9.205c1.395,1.48,2.773,3.023,4.226,4.641c1.75,1.959,3.424,3.717,5.178,5.703
			c0.086,0.105,0.168,0.166,0.184,0.137c0.012-0.027-0.041-0.127-0.131-0.227c-1.775-2.041-3.501-3.92-5.236-5.814
			c-1.734-1.9-3.473-3.826-5.19-5.992c-0.131-0.168-0.266-0.344-0.397-0.51c1.264,1.213,2.516,2.414,3.759,3.609
			c1.624,1.977,3.256,3.934,4.892,5.875c1.657,1.941,3.342,3.85,5.019,5.742c0.155,0.184,0.319,0.316,0.364,0.285
			c0.041-0.031-0.049-0.219-0.208-0.408c-1.722-2.254-3.497-4.494-5.215-6.773l0.438,0.436l0.396,0.453
			c1.158,1.436,2.344,2.85,3.538,4.27c0.43,0.541,0.892,0.922,1.051,0.871c0.139-0.074-0.078-0.533-0.491-1.057l0.229,0.236
			c0.074,0.08,0.151,0.125,0.151,0.088c-0.004-0.045-0.078-0.16-0.147-0.24c-0.274-0.283-0.548-0.557-0.822-0.838
			c-2.188-2.738-4.377-5.477-6.569-8.215c1.251,1.436,2.495,2.889,3.734,4.352c1.244,1.465,2.503,2.924,3.739,4.404
			c-0.069-0.047-0.102-0.041-0.057,0.043c0.037,0.074,0.139,0.197,0.205,0.254c0.078,0.055,0.098,0.027,0.057-0.045l-0.004-0.008
			c1.329,1.59,2.638,3.195,3.935,4.82c0.073,0.094,0.159,0.158,0.184,0.141c0.024-0.016-0.025-0.115-0.111-0.219
			c-2.147-2.689-4.34-5.328-6.561-7.924c-2.217-2.6-4.414-5.195-6.651-7.715c-0.229-0.283-0.462-0.57-0.687-0.855
			c0.012-0.061,0.008-0.133-0.004-0.217c0.397,0.383,0.798,0.766,1.194,1.137c1.068,1.281,2.135,2.564,3.203,3.846
			c1.21,1.547,2.417,3.092,3.665,4.613c0.176,0.223,0.372,0.381,0.434,0.35c0.061-0.025-0.045-0.236-0.229-0.469l-0.904-1.121
			c0.323,0.264,0.585,0.408,0.712,0.363c0.127-0.039,0.102-0.252-0.037-0.555c1.444,1.584,2.88,3.143,4.324,4.643
			c0.086,0.09,0.147,0.125,0.143,0.076c-0.004-0.051-0.069-0.154-0.151-0.238c-1.938-2.277-3.91-4.473-5.82-6.754
			c-0.176-0.248-0.344-0.496-0.516-0.742c0.982,1.092,1.972,2.162,2.974,3.18c0.139,0.146,0.246,0.205,0.266,0.156
			c0.037,0.064,0.098,0.139,0.16,0.203c0.364,0.326,0.736,0.709,1.125,1.117c0.09,0.088,0.156,0.121,0.143,0.066
			c-0.012-0.059-0.09-0.17-0.167-0.252c-0.397-0.412-0.798-0.816-1.182-1.174c-0.041-0.033-0.078-0.055-0.094-0.055
			c-0.049-0.104-0.151-0.248-0.274-0.383c-1.612-1.869-3.219-3.691-4.814-5.533c-0.319-0.447-0.646-0.9-0.981-1.359
			c0.691,0.76,1.386,1.537,2.098,2.332c1.75,1.957,3.424,3.717,5.179,5.703c0.073,0.09,0.143,0.143,0.171,0.139
			c1.473,1.652,2.954,3.297,4.426,4.959c0.409,0.471,0.797,0.752,0.871,0.619c0.069-0.135-0.205-0.629-0.609-1.1
			c-1.203-1.479-2.405-2.887-3.624-4.277c-1.133-1.465-2.274-2.936-3.396-4.416l0.442,0.436l0.393,0.453
			c1.158,1.434,2.348,2.85,3.539,4.271c0.434,0.535,0.896,0.916,1.051,0.863c0.139-0.07-0.078-0.529-0.487-1.053l0.229,0.234
			c0.074,0.084,0.147,0.129,0.147,0.094c0-0.049-0.073-0.168-0.147-0.244c-0.278-0.281-0.548-0.561-0.822-0.836
			c-2.188-2.738-4.377-5.473-6.569-8.217c1.252,1.438,2.495,2.887,3.735,4.354c1.243,1.461,2.503,2.918,3.734,4.402
			c-0.062-0.051-0.098-0.041-0.049,0.043c0.033,0.072,0.135,0.199,0.201,0.25c0.078,0.059,0.098,0.033,0.057-0.045v-0.006
			c1.321,1.592,2.634,3.195,3.931,4.822c0.074,0.09,0.16,0.16,0.184,0.143s-0.029-0.117-0.11-0.221
			c-2.147-2.686-4.336-5.328-6.562-7.922c-2.217-2.596-4.413-5.195-6.651-7.719c-0.229-0.283-0.458-0.566-0.687-0.854
			c0.033-0.148-0.024-0.391-0.156-0.689c1.522,1.822,3.031,3.635,4.549,5.457c1.211,1.547,2.421,3.09,3.665,4.611
			c0.176,0.223,0.372,0.381,0.434,0.35c0.062-0.023-0.045-0.232-0.229-0.463l-0.904-1.129c0.319,0.268,0.585,0.41,0.712,0.365
			c0.131-0.041,0.098-0.254-0.033-0.559c1.436,1.586,2.88,3.148,4.319,4.645c0.082,0.088,0.147,0.127,0.147,0.074
			c-0.004-0.045-0.069-0.15-0.155-0.238c-1.939-2.273-3.911-4.473-5.821-6.748c-1.317-1.908-2.593-3.779-4.107-5.789
			c-0.503-0.666-1.019-1.318-1.534-1.967c0.053-0.008,0.106-0.014,0.159-0.02c1.428,1.727,2.859,3.436,4.291,5.121
			c3.183,3.779,6.459,7.352,9.703,11.006c0.405,0.475,0.802,0.754,0.871,0.621c0.074-0.129-0.205-0.629-0.609-1.1
			c-1.464-1.799-2.929-3.5-4.422-5.189c-0.749-0.84-1.501-1.689-2.266-2.547c-0.765-0.869-1.534-1.748-2.323-2.645
			c-1.636-1.865-3.109-3.568-4.647-5.363c2.961-0.469,5.522-1.227,8.349-1.801c0.103-0.02,0.115-0.074,0.062-0.119
			c-0.078-0.041-0.217-0.051-0.311-0.031c-2.753,0.248-5.526,0.471-8.336,0.615c-0.049,0-0.094,0.002-0.144,0.002
			c0.012-0.076-0.286-0.23-0.527-0.369c0.008-0.029-0.025-0.098-0.09-0.178c-0.021-0.035-0.045-0.066-0.069-0.094
			c0.082-0.01,0.208-0.008,0.409,0.016l0.425,0.07c0.564,0.062,1.121-0.014,1.399-0.201c0.09-0.057,0.147-0.117,0.172-0.182
			c3.963-0.178,7.972-0.203,11.731-0.764c0.192-0.031,0.29-0.102,0.262-0.184c0.069,0.025,0.164,0.031,0.245,0.012
			c0.45-0.119,0.953-0.193,1.477-0.258c0.119-0.023,0.18-0.068,0.126-0.109c-0.053-0.053-0.18-0.078-0.286-0.057
			c-0.54,0.066-1.068,0.146-1.55,0.266c-0.057,0.014-0.086,0.041-0.098,0.064c-0.106-0.051-0.278-0.08-0.446-0.061
			c-3.866,0.104-7.604,0.383-11.499,0.322c1.915-0.217,3.866-0.336,5.915-0.475c2.479-0.15,4.757-0.428,7.26-0.555
			c0.131,0.004,0.217-0.047,0.205-0.092c-0.016-0.045-0.119-0.092-0.25-0.082c-2.561,0.094-4.958,0.307-7.379,0.51
			c-2.422,0.203-4.872,0.377-7.502,0.252c-0.208-0.014-0.413-0.023-0.614-0.039c1.628-0.332,3.24-0.664,4.839-0.992
			c2.425,0.027,4.843,0.037,7.256,0.018c2.413-0.049,4.818-0.178,7.208-0.307c0.229,0.004,0.421-0.074,0.413-0.164
			c0-0.094-0.201-0.178-0.43-0.178c-2.704-0.215-5.428-0.346-8.144-0.59l0.568-0.1l0.573-0.02c1.751,0.049,3.505,0.039,5.26,0.033
			c0.659,0.025,1.203-0.172,1.24-0.443c0.012-0.262-0.471-0.482-1.101-0.52l0.307-0.041c0.103-0.01,0.176-0.059,0.151-0.1
			c-0.041-0.049-0.171-0.08-0.27-0.074c-0.373,0.055-0.736,0.111-1.101,0.168c-3.333-0.129-6.667-0.26-10.001-0.387
			c1.795-0.07,3.607-0.117,5.428-0.133c1.82-0.031,3.641-0.092,5.473-0.088c-0.078,0.035-0.086,0.088,0.004,0.127
			c0.082,0.031,0.233,0.033,0.311,0.002c0.086-0.035,0.069-0.09-0.008-0.121l-0.008-0.008c1.963,0.008,3.935,0.043,5.906,0.123
			c0.119,0.004,0.217-0.035,0.213-0.088c0-0.051-0.106-0.094-0.237-0.094C106.974,72.82,103.717,72.809,100.482,72.883z
			 M36.892,33.894l-0.008-0.049l0.863,0.194L36.892,33.894z M40.733,32l-0.008-0.051l0.024,0.006
			c0.012,0.022,0.029,0.037,0.041,0.057L40.733,32z M41.125,35.276c-0.021-0.074-0.045-0.167-0.074-0.282
			c0,0,0.033,0.119,0.074,0.287C41.125,35.276,41.125,35.276,41.125,35.276z M41.158,32.071c-0.008-0.008-0.012-0.019-0.021-0.029
			l0.286,0.065c0.004,0.004,0.008,0.004,0.008,0.01L41.158,32.071z M29.415,53.92c0.024,0.053,0.057,0.102,0.086,0.147
			c-0.225,0.06-0.45,0.115-0.663,0.156C29.005,54.029,29.218,53.885,29.415,53.92z M28.498,54.906
			c0.004-0.045,0.017-0.09,0.033-0.144c1.808,0.008,3.682-0.061,5.056,0.401C31.86,55.246,29.983,55.317,28.498,54.906z
			 M38.859,59.809l0.008-0.086l0.024,0.065L38.859,59.809z M51.147,38.736c-0.086-0.092-0.237-0.28-0.217-0.137
			c-0.622-0.784-1.264-1.575-1.939-2.383c-0.245-0.296-0.511-0.581-0.769-0.851c-0.139-0.393-0.294-0.804-0.552-1.292
			c0.512,0.763,1.174,1.6,1.775,2.373c0.663,0.871,1.317,1.722,1.963,2.565C51.323,38.92,51.237,38.827,51.147,38.736z
			 M53.826,39.917l-0.45-0.616l0.053,0.131c-0.626-0.765-1.219-1.532-1.82-2.295c-0.524-0.753-1.096-1.53-1.698-2.311
			c-0.311-0.407-0.626-0.814-0.945-1.227c0.335,0.307,0.659,0.597,0.974,0.854c1.117,1.559,2.176,3.086,3.46,4.666l0.225,0.331
			l0.257,0.526L53.826,39.917z M25.79,76.867l-0.045-0.045l0.602-0.941L25.79,76.867z M29.071,72.752
			c-0.069-0.057-0.155-0.131-0.266-0.219c0,0,0.115,0.094,0.27,0.219H29.071z M36.561,70.457c-0.115,0.025-0.348,0.01-0.217,0.143
			c-0.957-0.045-1.927-0.068-2.917-0.066c-0.373-0.002-0.736,0.029-1.084,0.076c-0.393-0.254-0.806-0.498-1.333-0.705
			c0.883,0.166,1.894,0.217,2.831,0.283c1.043,0.078,2.062,0.154,3.076,0.23C36.798,70.432,36.683,70.443,36.561,70.457z
			 M38.884,68.191l-0.728-0.082l0.135,0.07c-0.94-0.014-1.865-0.074-2.79-0.123c-0.875-0.141-1.796-0.244-2.732-0.307
			c-0.495-0.041-0.998-0.078-1.497-0.104c0.425-0.105,0.826-0.225,1.194-0.354c1.837,0.248,3.62,0.539,5.555,0.584l0.385,0.064
			l0.556,0.25H38.884z M63.111,49.024c1.244-0.033,2.516-0.194,3.73-0.503C66.711,49.499,65.067,49.261,63.111,49.024z
			 M71.554,60.673c-0.102-0.133-0.205-0.268-0.307-0.4c0.11,0.133,0.225,0.257,0.335,0.391
			C71.575,60.666,71.566,60.669,71.554,60.673z M72.106,61.392c-0.123-0.162-0.246-0.325-0.372-0.489
			c0.021,0,0.033-0.002,0.053-0.002c0.135,0.154,0.274,0.313,0.405,0.469C72.164,61.373,72.139,61.385,72.106,61.392z M74.941,81.59
			c0.008,0,0.021,0,0.029,0c0.258,0.312,0.663,0.797,1.035,1.238C75.649,82.422,75.293,82.004,74.941,81.59z M72.851,62.356
			c0.061-0.008,0.123-0.01,0.18-0.018c1.342,1.548,2.684,3.087,4.042,4.608c-0.225-0.02-0.446-0.039-0.667-0.055
			C75.195,65.377,74.017,63.867,72.851,62.356z M77.571,68.305c-0.233-0.277-0.475-0.555-0.708-0.832
			c-0.106-0.129-0.201-0.258-0.307-0.387c0.229,0.02,0.458,0.035,0.688,0.053c0.356,0.402,0.708,0.805,1.063,1.199
			C78.066,68.328,77.817,68.32,77.571,68.305z M78.496,69.488c-0.049-0.062-0.098-0.123-0.147-0.182
			c-0.082-0.115-0.172-0.225-0.258-0.338c0.327,0.02,0.663,0.043,0.994,0.059c-0.004,0.035,0.02,0.094,0.082,0.172
			c0.094,0.125,0.192,0.25,0.291,0.377C79.134,69.547,78.815,69.516,78.496,69.488z M87.307,87.555
			c0.409,0.486,0.826,0.965,1.239,1.443c-0.438-0.477-0.875-0.957-1.317-1.434c-1.043-1.143-2.086-2.305-3.129-3.51
			c-0.695-0.912-1.403-1.797-2.119-2.668c0.266,0.254,0.527,0.506,0.789,0.76C84.28,83.977,85.789,85.777,87.307,87.555z
			 M86.423,78.668c-0.114-0.074-0.184-0.135-0.143-0.17c0.021,0.031,0.045,0.062,0.074,0.096
			C86.374,78.623,86.398,78.643,86.423,78.668z"/>
		<path fill="#FFFFFF" d="M42.451,27.312c-0.045-0.088-0.069-0.147-0.069-0.147c0.008,0.039,0.016,0.074,0.028,0.108
			c0.021,0.021,0.021,0.024,0.021,0.024S42.43,27.297,42.451,27.312z"/>
		<path fill="#FFFFFF" d="M38.61,29.202c-0.045-0.082-0.07-0.141-0.07-0.141c0.008,0.035,0.017,0.072,0.029,0.104
			c0.016,0.024,0.016,0.024,0.016,0.024S38.589,29.189,38.61,29.202z"/>
		<path d="M0,0v124.328h376.991V0H0z M371.63,118.969H5.367V5.362H371.63V118.969z"/>
	</g>
</g>
</svg>
