<?xml version="1.0" encoding="utf-8"?>
<!-- Generator: Adobe Illustrator 15.1.0, SVG Export Plug-In . SVG Version: 6.00 Build 0)  -->
<!DOCTYPE svg PUBLIC "-//W3C//DTD SVG 1.1//EN" "http://www.w3.org/Graphics/SVG/1.1/DTD/svg11.dtd">
<svg version="1.1" id="Capa_1" xmlns="http://www.w3.org/2000/svg" xmlns:xlink="http://www.w3.org/1999/xlink" x="0px" y="0px"
	 width="180px" height="180px" viewBox="0 0 180 180" enable-background="new 0 0 180 180" xml:space="preserve">
<rect x="26.407" y="27.061" fill="#009FE3" width="125.881" height="125.879"/>
<g>
	<defs>
		<rect id="SVGID_1_" width="180" height="180"/>
	</defs>
	<clipPath id="SVGID_2_">
		<use xlink:href="#SVGID_1_"  overflow="visible"/>
	</clipPath>
	<path clip-path="url(#SVGID_2_)" fill="#FFFFFF" d="M41.458,79.282l-0.016,0.227c0.168-0.049,0.321-0.098,0.463-0.149
		C41.675,79.319,41.458,79.282,41.458,79.282"/>
	<path clip-path="url(#SVGID_2_)" fill="#FFFFFF" d="M42.61,76.708l-0.137-0.025c0.006,0.068,0.004,0.125,0.006,0.189
		C42.524,76.817,42.562,76.759,42.61,76.708"/>
	<path clip-path="url(#SVGID_2_)" fill="#FFFFFF" d="M41.442,79.513c-0.051,0.84,0.051,1.703-0.262,2.496
		c-0.246-0.043-0.74-0.129-0.99-0.17c-0.293,0.408-0.094,0.904-0.139,1.362c-0.248-0.043-0.498-0.086-0.521,0.138
		c-0.223,0.565,0.004,1.014,0.473,1.236C41.338,82.216,44.133,81.777,41.442,79.513"/>
	<path clip-path="url(#SVGID_2_)" fill="#FFFFFF" d="M43.589,78.034l-1.293-0.227c-0.189,0.502-0.424,0.987-0.342,1.532
		C42.663,79.075,43.116,78.708,43.589,78.034"/>
	<path clip-path="url(#SVGID_2_)" fill="#FFFFFF" d="M146.544,88.964c0.143-0.23,0.279-0.461,0.41-0.695
		c-2.412-0.133-4.812-0.401-6.861,0.595c1.389,0.157,2.373-0.136,3.715-0.035c0.009-0.138,0.037-0.211,0.246,0.02
		c-0.088-0.004-0.166-0.014-0.246-0.02c-0.01,0.131-0.01,0.322-0.127,0.397C144.556,89.062,145.571,88.925,146.544,88.964"/>
	<path clip-path="url(#SVGID_2_)" fill="#FFFFFF" d="M147.233,86.911c0.08,0.008,0.162,0.014,0.242,0.02
		C147.271,86.7,147.243,86.772,147.233,86.911"/>
	<path clip-path="url(#SVGID_2_)" fill="#FFFFFF" d="M132.128,71.614C130.511,74.182,133.634,71.491,132.128,71.614"/>
	<path clip-path="url(#SVGID_2_)" fill="#FFFFFF" d="M108.622,89.175c2.688,0.123,5.363,0.146,8.033,0.145
		c4.418-0.444,8.832-0.764,13.27-1.483c0.504-0.066,1.002-0.111,1.496-0.139c-8.09-1.166-16.16-2.33-23.234-0.218
		c-0.131,0.037-0.273,0.082-0.41,0.121c3.287,0.213,6.549,0.246,9.803,0.242c-2.303,0.23-4.605,0.492-6.914,0.863
		C109.972,88.866,109.298,89.021,108.622,89.175"/>
	<path clip-path="url(#SVGID_2_)" fill="#FFFFFF" d="M113.245,70.073c-0.246-0.029-0.734-0.084-0.98-0.111l-0.477,0.361
		c0.228,0.041,0.459,0.082,0.693,0.121L113.245,70.073z"/>
	<path clip-path="url(#SVGID_2_)" fill="#FFFFFF" d="M45.319,98.187c0.066-0.023,0.139-0.045,0.207-0.068
		c-0.049-0.012-0.102-0.023-0.152-0.033c-0.049,0.021-0.084,0.053-0.121,0.08C45.274,98.173,45.296,98.179,45.319,98.187"/>
	<path clip-path="url(#SVGID_2_)" fill="#FFFFFF" d="M41.739,98.69c0.119,0.053,0.281,0.119,0.441,0.187
		c0.321,0.136,0.493,0.052,0.479-0.085c-0.229-0.084-0.447-0.172-0.777-0.17C41.8,98.659,41.762,98.681,41.739,98.69
		c-0.109-0.047-0.186-0.08-0.186-0.08c0.043,0.037,0.084,0.066,0.124,0.098c0.035-0.004,0.037-0.004,0.037-0.004
		S41.718,98.704,41.739,98.69"/>
	<path clip-path="url(#SVGID_2_)" fill="#FFFFFF" d="M139.269,103.274c-0.107,0.043-0.104,0.105,0.006,0.152
		c0.096,0.037,0.266,0.047,0.373,0.004c0.09-0.037,0.088-0.113-0.006-0.15C139.53,103.233,139.36,103.237,139.269,103.274"/>
	<path clip-path="url(#SVGID_2_)" fill="#FFFFFF" d="M61.372,50.841c-0.109-0.211-0.213-0.414-0.437-0.68
		c-0.075-0.052-0.112-0.082-0.129-0.095c0.054,0.113,0.13,0.265,0.207,0.416C61.159,50.782,61.317,50.894,61.372,50.841"/>
	<path clip-path="url(#SVGID_2_)" fill="#FFFFFF" d="M124.38,130.466c0.047,0.088,0.156,0.23,0.252,0.303
		c0.078,0.064,0.113,0.037,0.068-0.051c-0.055-0.104-0.17-0.24-0.248-0.305C124.356,130.341,124.327,130.361,124.38,130.466"/>
	<path clip-path="url(#SVGID_2_)" fill="#FFFFFF" d="M66.028,48.548c-0.111-0.213-0.215-0.416-0.439-0.68
		c-0.073-0.054-0.11-0.08-0.129-0.095c0.052,0.113,0.132,0.265,0.205,0.418C65.815,48.491,65.971,48.603,66.028,48.548"/>
	<path clip-path="url(#SVGID_2_)" fill="#FFFFFF" d="M129.036,128.171c0.043,0.09,0.156,0.232,0.246,0.307
		c0.082,0.059,0.115,0.037,0.072-0.055c-0.051-0.104-0.17-0.238-0.248-0.303C129.013,128.048,128.981,128.067,129.036,128.171"/>
	<path clip-path="url(#SVGID_2_)" fill="#FFFFFF" d="M147.593,103.073c-3.959-0.162-7.906-0.18-11.826-0.086
		c-3.918,0.076-7.826,0.123-11.68,0.336c-0.422-0.014-0.844-0.027-1.266-0.039v-0.004c-0.127-0.256-0.398-0.486-0.768-0.682
		c2.723,0.002,5.436,0.002,8.16,0.008c2.264,0.131,4.529,0.264,6.791,0.305c0.324,0.013,0.598-0.084,0.611-0.23
		c0.011-0.133-0.256-0.244-0.6-0.26l-1.662-0.057c0.459-0.158,0.764-0.393,0.801-0.658c0.033-0.262-0.189-0.504-0.571-0.693
		c2.446-0.193,4.868-0.414,7.228-0.725c0.141-0.018,0.213-0.073,0.164-0.131c-0.051-0.057-0.193-0.092-0.33-0.072
		c-3.432,0.061-6.803,0.285-10.221,0.301c-2.684-0.443-5.309-0.916-8.215-1.178c-4.217-0.371-8.248-0.225-12.248-0.078
		c-0.503-0.053-1-0.092-1.5-0.135c-0.125-0.164-0.246-0.324-0.371-0.488c-0.074-0.092-0.141-0.15-0.193-0.186
		c0.619,0.039,1.238,0.076,1.867,0.115c2.963,0.174,5.885,0.268,8.773,0.311c2.875,0.039,5.721,0.02,8.548-0.032
		c5.677-0.034,11.204-0.521,16.798-0.823c0.717-0.021,1.232-0.279,1.148-0.572s-0.744-0.521-1.451-0.502
		c-2.676-0.06-5.247,0.016-7.829,0.147c-1.293,0.075-2.589,0.151-3.903,0.231c-1.318,0.057-2.658,0.119-4.027,0.176
		c-3.903,0.174-7.314,0.273-11.26,0.34c-3.215,0.057-6.26-0.076-9.34-0.215c-0.037-0.051-0.061-0.094-0.104-0.145
		c-0.365-0.429-0.725-0.859-1.088-1.287c3.715,0.307,7.432,0.608,11.152,0.857c0.154,0.014,0.283-0.023,0.295-0.088
		c0.006-0.051-0.109-0.111-0.252-0.115c-3.811-0.264-7.598-0.576-11.396-0.891c-1.527-1.797-3.053-3.596-4.568-5.402
		c-0.078-0.092-0.154-0.186-0.23-0.277c1.924-0.24,3.742-0.572,5.592-0.975c-1.812-0.083-3.635-0.212-5.465-0.419
		c-0.398,0.009-0.787,0.066-1.168,0.15c-0.137-0.164-0.28-0.33-0.418-0.494c2.258-0.194,4.455-0.303,6.205-0.811
		c-1.229-0.078-2.459-0.181-3.692-0.318c-1.007,0.019-1.948,0.328-2.87,0.707c-0.242-0.283-0.477-0.57-0.727-0.856
		c3.109-0.394,6.32-0.339,8.627-1.132c4.586-1.366,9.588-1.356,14.746-0.864c2.59-0.533,5.258-0.972,7.965-1.254
		c-2.488,0.553-5.032,0.93-7.799,1.27l-0.166-0.016c-0.166,0.036-0.338,0.069-0.502,0.1c0.229-0.027,0.445-0.055,0.672-0.084
		c2.742,0.268,5.525,0.666,8.314,1.064c3.172-0.199,6.168,0.252,9.379,0.213c0.756-0.146,1.492-0.062,2.014-0.464
		c0.387-0.547,0.775-1.094,1.125-1.651c-0.975-0.037-1.992,0.098-2.863,0.262c0.117-0.072,0.117-0.262,0.128-0.395
		c-1.345-0.097-2.327,0.192-3.714,0.035c2.046-0.998,4.445-0.73,6.857-0.595c0.143-0.262,0.273-0.526,0.389-0.791
		c-4.957-0.91-10.074-0.926-15.066-0.41c0.85-0.188,1.695-0.397,2.543-0.635c4.021-0.781,8.598,0.148,12.866,0.07
		c0.173-0.658,0.231-1.342,0.126-2.066c-4.544-1.256-9.225-0.549-13.792-1.446l-0.114,0.063c-2.054,1.152-5.215,0.34-7.748,1.205
		c-2.545,1.094-5.029,1.277-7.556,2.145c1.53-0.75,3.063-1.499,4.339-2.045c2.021-0.694,3.955-0.02,5.766-1.196
		c0.523-0.402,1.488-0.064,2.238-0.209c0.325-0.183,0.674-0.334,1.033-0.484c-0.359-0.113-0.715-0.238-1.072-0.383
		c-0.227-0.258,6.328-0.732,6.145-1.674c0.008-0.113-1.334-0.049-3.146,0.002c-1.814,0.047-4.105,0.08-5.994-0.105
		c-0.691-0.766,0.863-3.295,1.369-3.469c0.061-0.055,0.125-0.105,0.191-0.156c-0.561-0.112-1.121-0.223-1.676-0.332
		c-0.901,0.117-1.809,0.236-2.717,0.353c-1.463,0.16-2.939,0.319-4.42,0.483c0.403-0.151,0.809-0.311,1.211-0.483
		c0.197-0.115,0.399-0.203,0.6-0.285c1.615-0.646,3.439-0.43,5.326-0.068c1.025-0.149,2.043-0.313,3.055-0.494
		c-0.497,0.234-0.973,0.494-1.381,0.828c0.709,0.14,1.418,0.271,2.123,0.355c1.148-0.537,1.838-0.752,2.221-0.783
		c0.191-0.301,0.439-0.664,0.777-1.123c-0.066-0.008-0.135-0.016-0.196-0.022c-1.169,0.284-2.349,0.528-3.541,0.745l0.077-0.039
		c-1.264-0.153-2.543-0.452-3.797-0.694c-2.348,0.338-4.732,0.598-7.133,0.838c0.402-0.15,0.805-0.312,1.211-0.484
		c1.76-0.983,3.801-0.758,5.922-0.354c2.236-0.32,4.443-0.707,6.595-1.238c-1.427-0.156-3.054-0.332-4.478-0.27
		c-5.756,0.524-11.049,1.174-16.4,1.807c-0.672,0.465-1.334,0.832-1.986,0.91c-1.502,0.289-3.219,0.098-4.707,0.162
		c0.213,0.485-0.521,0.403-0.539,0.633c-1.535,0.746-3.234,0.326-4.953,0.133c-0.246-0.027-0.23-0.254-0.469-0.471
		c4.408-0.404,8.551-0.881,12.654-1.367c0.205-0.148,0.416-0.299,0.623-0.453c-2.703-0.442-5.42-0.451-7.994,0.531
		c-0.504,0.174-1.285,0.776-1.775,0.721c-2.34-0.045-4.6,0.433-6.85,0.846c1.064-0.088,2.146-0.18,3.25-0.274l0.088-0.004
		c-2.473,1.885-5.559,1.242-8.586,0.846c-0.429-0.004-0.863-0.033-1.296-0.08c-0.03-0.028-0.061-0.053-0.088-0.078
		c0.459,0.045,0.922,0.095,1.384,0.158c1.768,0.021,3.506-0.256,5.249-0.568c-2.312,0.158-4.561,0.25-6.798,0.265
		c-0.002-0.004-0.004-0.008-0.008-0.008c-0.067-0.088-0.133-0.172-0.205-0.263c-1.647-2.34-3.944-4.809-5.858-7.194l-0.043,0.287
		c-0.33-0.459-0.439-0.785-0.814-1.275c0.068,0.162,0.131,0.316,0.203,0.479l-0.023-0.03c-0.34-0.57-0.829-1.199-1.371-1.828
		c-0.961-1.615-2.297-3.447-3.762-5.303c-0.123-0.283-0.373-0.67-0.717-1.086c-0.125-0.187-0.285-0.4-0.357-0.546
		c-0.633-1.321-1.551-2.819-2.643-4.42c0.182,0.328,0.373,0.664,0.559,0.992c-0.317-0.467-0.62-0.926-1.022-1.412
		c0.01,0.074,0.02,0.158,0.029,0.234c-0.98-1.66-2.65-3.654-3.89-4.478c-1.227-0.829-1.49-0.17-0.563,1.503l0.135,0.247
		c-0.674-0.745-1.342-1.354-1.883-1.616c-0.289-0.138-0.306,0.129-0.418,0.25c-0.263,0.051,0.037,0.772,0.678,1.606
		c0.178,0.232,0.359,0.445,0.539,0.635c0.676,0.988,1.354,1.992,2.016,2.964c0.127,0.196,0.332,0.407,0.459,0.473
		c0.115,0.053,0.107-0.059-0.032-0.258c-0.453-0.718-0.855-1.426-1.253-2.127c0.056,0.049,0.113,0.098,0.171,0.147
		c-0.033-0.049-0.062-0.098-0.095-0.147c-0.041-0.033-0.084-0.06-0.123-0.082c0.015,0.028,0.029,0.053,0.043,0.078
		c-0.053-0.045-0.106-0.089-0.161-0.134c0.038,0.009,0.075,0.033,0.118,0.056c-0.037-0.064-0.075-0.131-0.112-0.193
		c0.045,0.039,0.088,0.078,0.135,0.119c0.033,0.053,0.068,0.102,0.1,0.156c0.09,0.063,0.185,0.139,0.289,0.233
		c0.232,0.336,0.468,0.672,0.705,1.006c0.605,0.849,1.209,1.691,1.746,2.517c0.043,0.067-0.135,0.02-0.074,0.154
		c0.033,0.069,0.066,0.135,0.101,0.208c-0.138-0.206-0.289-0.417-0.457-0.643c-0.812-0.738-1.119-1.02-1.33-1.211v-0.006
		c0,0-0.004-0.002-0.064-0.057c-0.1-0.087-0.188-0.167-0.307-0.281c0,0-0.006,0.004-0.012,0.006
		c-0.025-0.023-0.05-0.045-0.078-0.068c-0.099-0.127-0.185-0.256-0.279-0.383c-0.102-0.145-0.227-0.27-0.307-0.32
		c-0.015-0.065-0.033-0.129-0.064-0.207c-0.518-0.735-0.518-0.735-1.045-1.487c0,0-0.025,0.016-0.039,0.057
		c-0.024-0.027-0.24-0.252-0.453-0.543c-0.219-0.27-0.219-0.27-0.717-0.971l0.164,0.381l-0.162-0.324l-0.047,0.133l0.012-0.198
		l-0.188-0.074c0,0,0-0.004-0.187-0.709c0.023,0.026,0.025,0.03,0.025,0.03s0.002,0,0.025,0.015
		c-0.052-0.103-0.085-0.174-0.085-0.174c0.009,0.045,0.021,0.088,0.033,0.127c-0.041-0.043-0.137-0.138-0.381-0.383
		c0,0-0.084-0.06-0.156-0.099c-0.037,0.01-0.037,0.01-0.327-0.156c0,0-0.041,0.013-0.06,0.056c0.018,0.09,0.018,0.09-0.072,0.16
		c0,0,0.025,0.1,0.082,0.229c0.07,0.123,0.088,0.152,0.343,0.592c-0.043-0.026-0.087-0.049-0.128-0.069
		c-0.249,0.022-0.25,0.02-0.278,0.76c0,0,0.108,0.352,0.391,0.861c0.361,0.522,0.388,0.563,0.758,1.094
		c-0.616-0.683-1.241-1.277-1.784-1.638c-1.228-0.831-1.492-0.174-0.562,1.503l0.133,0.245c-0.676-0.745-1.342-1.356-1.883-1.616
		c-0.291-0.136-0.305,0.127-0.418,0.252c-0.266,0.051,0.039,0.768,0.676,1.602c0.177,0.234,0.363,0.447,0.543,0.635
		c0.16,0.236,0.32,0.474,0.482,0.712c0.065,0.215,0.156,0.459,0.287,0.739l0.035,0.084c-0.224-0.324-0.332-0.473-0.718-1.02
		c0,0-0.022,0.016-0.037,0.059c-0.026-0.029-0.243-0.256-0.452-0.545c-0.218-0.27-0.218-0.27-0.718-0.971l0.166,0.379l-0.161-0.324
		l-0.052,0.135l0.013-0.196l-0.183-0.078c0,0-0.004-0.002-0.194-0.707c0.028,0.026,0.028,0.028,0.028,0.028s0.002,0.001,0.025,0.017
		c-0.053-0.103-0.086-0.174-0.086-0.174c0.01,0.045,0.024,0.088,0.033,0.129c-0.043-0.041-0.136-0.138-0.382-0.387
		c0,0-0.082-0.06-0.155-0.097c-0.035,0.01-0.035,0.01-0.328-0.156c0,0-0.039,0.013-0.06,0.056c0.017,0.088,0.017,0.088-0.071,0.16
		c0,0,0.026,0.096,0.084,0.233c0.069,0.119,0.09,0.148,0.342,0.588c-0.043-0.028-0.086-0.051-0.129-0.073
		c-0.248,0.026-0.25,0.022-0.275,0.766c0,0,0.105,0.348,0.389,0.857c0.386,0.561,0.386,0.561,0.832,1.204
		c0,0,0.095,0.144,0.255,0.39c0.069,0.213,0.08,0.262,0.122,0.428h0.001c-0.097-0.113-0.203-0.225-0.298-0.309
		c-0.282-0.246-0.416-0.226-0.299,0.049c-0.526-0.15-0.635,0.178-0.567,0.713c-0.187-0.068-0.33-0.068-0.42,0.004
		c-0.601-0.326-1.087-0.471-1.457-0.439l-0.283,0.074c-0.095,0.25,0.028,0.748,0.348,1.414l0.084,0.213l-0.328-0.059
		c0.039,0.527,0.25,1.223,0.482,1.941c0.244,0.713,0.52,1.442,0.653,2.045l0.316,0.84c0.205,0.629,0.713,1.516,1.414,2.487
		l0.742,1.027c0.172,0.205,0.342,0.408,0.516,0.611c-1.112-0.865-1.928-1.24-2.133-0.808c-0.33,0.732,1.234,3.298,3.479,5.757
		c0.876,1.006,1.748,1.985,2.623,2.969c-1.495-0.256-2.973-0.39-4.534-0.347c-0.172,0.005-0.343,0.009-0.519,0.015
		c-3.955,0.164-7.344,0.067-11.289-0.691c-0.973-0.166-1.963-0.108-2.934-0.274c-0.756,0.1,0.336,1.678-0.902,1.694
		c0.06,0.074,0.117,0.164,0.166,0.258c0.957-0.131,1.81-0.411,2.027,0.121c0.254,1.004-1.555,1.209-2.771,1.992
		c-0.049,0.172-0.112,0.336-0.192,0.502c0,0-0.158-0.03-0.349-0.065c-0.049,0.053-0.088,0.11-0.133,0.164
		c0.017,0.328-0.067,0.635-0.18,0.94l1.293,0.224c-0.473,0.674-0.92,1.043-1.629,1.311l0.002,0.025
		c-0.015-0.002-0.031-0.007-0.049-0.007c-0.144,0.05-0.291,0.101-0.459,0.148v0.006c2.694,2.26-0.089,2.701-1.416,5.066
		c0.245,0.119,0.553,0.178,0.905,0.158c-0.024,0.229-0.071,0.684-0.071,0.684c2.2,0.842,3.608,2.012,5.508,3.496
		c0.481,0.313,0.404,1.223,1.156,1.356c2.006,0.38,3.979,0.847,5.991,0.871c2.15-0.107,4.242-0.143,6.31-0.125
		c2.057,0.047,4.094,0.092,6.145,0.137c-0.024-0.051-0.033-0.104-0.026-0.15c0.983,0.055,1.967,0.115,2.971,0.176
		c0.986,0.104,1.772-0.504,2.756-0.404c2.924,0.308,5.771,0.494,8.603,0.615c1.573,1.697,3.067,3.344,4.577,4.992
		c0.152,0.174,0.3,0.35,0.451,0.523l-0.739,0.029c-1.601-1.008-4.921-1.42-7.896-1.344c-1.086,0.039-2.088,0.209-3.096,0.432
		c0.475,0.014,0.936,0.029,1.412,0.044c-1.396,0.112-2.58,0.44-3.744,0.774c-0.103-0.004-0.207-0.01-0.316-0.016
		c-2.736-0.41-5.908-0.091-8.815-0.193l0.209,0.375c-0.537-0.072-0.861-0.289-1.449-0.332c0.166,0.09,0.328,0.172,0.492,0.26h-0.035
		c-0.635-0.18-1.392-0.236-2.179-0.207c-1.797-0.516-3.963-0.777-6.211-0.891c-0.291-0.15-0.731-0.246-1.247-0.25
		c-0.216-0.045-0.47-0.07-0.626-0.137c-1.391-0.629-3.073-1.07-4.924-1.4c0.357,0.119,0.726,0.244,1.086,0.363
		c-0.539-0.102-1.065-0.205-1.664-0.213c0.068,0.07,0.136,0.148,0.205,0.225c-1.842-0.543-4.313-0.535-5.61,0.201
		c-1.297,0.719-0.902,1.803,0.928,2.43l0.283,0.104c-0.951,0.07-1.795,0.273-2.283,0.707c-0.26,0.232-0.055,0.553-0.012,0.838
		c-0.092,0.412,0.645,0.807,1.643,0.887c0.281,0.021,0.549,0.014,0.795-0.016c1.144,0.205,2.301,0.412,3.426,0.616
		c0.222,0.046,0.498,0.009,0.615-0.089c0.103-0.094,0.01-0.205-0.225-0.248c-0.81-0.191-1.59-0.441-2.361-0.691
		c-0.065,0.02-0.131,0.041-0.197,0.062c0.031-0.035,0.089-0.055,0.13-0.084c-0.074-0.025-0.15-0.047-0.224-0.07
		c0.055-0.016,0.099-0.039,0.154-0.053c0.065,0.014,0.127,0.029,0.192,0.043c0.097-0.049,0.214-0.088,0.341-0.123
		c0.387,0.059,0.772,0.117,1.155,0.178c0.996,0.135,1.984,0.268,2.927,0.469c0.077,0.021-0.052,0.205,0.088,0.274
		c0.074,0.03,0.147,0.062,0.219,0.095c-0.236-0.041-0.484-0.076-0.752-0.102c-1.014,0.256-1.394,0.354-1.66,0.42l-0.006-0.002
		l-0.078,0.025c-0.123,0.031-0.229,0.057-0.385,0.098v0.016c-0.029,0.01-0.062,0.02-0.097,0.029c-0.151-0.01-0.299-0.039-0.45-0.057
		c-0.17-0.022-0.336,0.004-0.42,0.057c-0.058-0.051-0.119-0.1-0.197-0.15c-0.857-0.125-0.857-0.125-1.736-0.256
		c0,0,0,0.049,0.025,0.113c-0.035,0.004-0.328,0.039-0.67-0.002c-0.33-0.01-0.33-0.01-1.152-0.123l0.391,0.203l-0.344-0.146
		l0.082,0.217l-0.153-0.238l-0.154,0.164c0,0-0.002-0.002-0.672-0.535c-0.054,0.01-0.183,0.029-0.508,0.078
		c0,0-0.089,0.043-0.158,0.1c-0.009,0.061-0.009,0.061-0.291,0.262c0,0-0.013,0.072,0.012,0.146c0.082,0.074,0.082,0.074,0.094,0.27
		c0,0,0.092,0.082,0.23,0.148c0.133,0.041,0.166,0.051,0.653,0.201c-0.045,0.029-0.086,0.062-0.124,0.095
		c-0.109,0.356-0.113,0.356,0.475,1.22c0,0,0.338,0.246,0.893,0.438c0.65,0.107,0.65,0.107,1.402,0.23c0,0,0.164,0.033,0.443,0.092
		c0.209,0.148,0.254,0.186,0.409,0.314h0.003c-0.146,0.004-0.285,0.018-0.404,0.057c-0.346,0.098-0.396,0.299-0.117,0.451
		c-0.389,0.537-0.178,1.051,0.291,1.553c-0.15,0.174-0.223,0.365-0.207,0.562c-0.576,0.45-0.941,0.937-1.104,1.462l-0.084,0.463
		c0.153,0.406,0.62,0.795,1.323,1.113l0.213,0.125l-0.213,0.373c0.445,0.535,1.117,1.029,1.82,1.52
		c0.699,0.471,1.426,0.916,1.984,1.412l0.84,0.516c0.614,0.422,1.592,0.734,2.737,0.885l1.209,0.152
		c0.255-0.004,0.505-0.004,0.759-0.006c-1.265,0.523-1.988,1.189-1.742,1.947c0.424,1.256,3.299,2.031,6.436,1.779
		c8.332-0.354,16.174-1.053,24.297-1.885c3.021-0.344,5.834-0.553,8.671-0.789c2.861-0.131,5.723-0.18,8.686-0.121
		c0.934-0.078,1.865-0.148,2.797-0.223c0.602,0.654,1.193,1.312,1.803,1.965c3.418,3.678,6.508,6.309,9.768,9.449
		c0.094,0.096,0.137,0.084,0.119,0.018c-0.037-0.094-0.146-0.236-0.234-0.318c-2.4-2.607-4.799-5.24-7.186-7.943
		c-0.037-0.043-0.076-0.09-0.115-0.133c0.119-0.052-0.871-1.883,0.139-0.511l0.309,0.442c0.424,0.578,0.924,1.094,1.264,1.293
		c0.104,0.072,0.188,0.099,0.246,0.105c3.354,3.818,6.648,7.74,10.057,11.211c0.17,0.174,0.297,0.25,0.324,0.189
		c0.043,0.08,0.113,0.174,0.191,0.25c0.443,0.391,0.896,0.855,1.365,1.352c0.107,0.102,0.186,0.146,0.17,0.08
		c-0.014-0.072-0.105-0.209-0.202-0.303c-0.481-0.504-0.962-0.992-1.431-1.424c-0.051-0.045-0.092-0.068-0.117-0.068
		c-0.057-0.125-0.18-0.303-0.327-0.463c-3.226-3.75-6.45-7.307-9.604-11.152c1.693,1.795,3.363,3.664,5.121,5.627
		c2.123,2.367,4.15,4.504,6.276,6.906c0.103,0.131,0.204,0.197,0.222,0.168c0.016-0.037-0.047-0.152-0.156-0.277
		c-2.149-2.475-4.242-4.748-6.346-7.045c-2.102-2.301-4.209-4.631-6.289-7.26c-0.16-0.203-0.32-0.412-0.48-0.619
		c1.535,1.473,3.05,2.93,4.553,4.377c1.971,2.391,3.945,4.764,5.926,7.119c2.006,2.348,4.053,4.662,6.084,6.95
		c0.189,0.229,0.387,0.386,0.439,0.349c0.053-0.041-0.061-0.264-0.248-0.492c-2.088-2.732-4.238-5.445-6.318-8.205l0.53,0.525
		l0.476,0.551c1.406,1.736,2.844,3.451,4.287,5.172c0.521,0.652,1.086,1.115,1.278,1.051c0.166-0.086-0.099-0.645-0.595-1.277
		l0.275,0.287c0.092,0.096,0.184,0.15,0.184,0.107c-0.002-0.055-0.092-0.197-0.178-0.291c-0.334-0.342-0.666-0.68-0.998-1.014
		c-2.652-3.32-5.305-6.635-7.959-9.953c1.514,1.736,3.025,3.496,4.523,5.271c1.51,1.771,3.035,3.539,4.527,5.334
		c-0.078-0.061-0.119-0.049-0.066,0.053c0.045,0.09,0.17,0.242,0.248,0.305c0.094,0.07,0.117,0.037,0.072-0.053l-0.006-0.008
		c1.607,1.924,3.195,3.869,4.765,5.836c0.091,0.115,0.194,0.197,0.226,0.176c0.029-0.023-0.033-0.143-0.137-0.27
		c-2.6-3.256-5.256-6.454-7.949-9.596c-2.686-3.148-5.348-6.293-8.058-9.35c-0.276-0.346-0.554-0.689-0.832-1.035l0.001-0.004
		c0.016-0.068,0.012-0.158-0.008-0.263c0.486,0.47,0.969,0.933,1.447,1.382c1.295,1.551,2.59,3.102,3.885,4.658
		c1.466,1.873,2.93,3.744,4.438,5.59c0.215,0.268,0.449,0.459,0.528,0.424c0.071-0.031-0.056-0.283-0.28-0.566l-1.095-1.362
		c0.39,0.323,0.707,0.497,0.864,0.442c0.152-0.049,0.119-0.307-0.045-0.674c1.748,1.92,3.488,3.809,5.238,5.623
		c0.102,0.107,0.178,0.15,0.172,0.092c-0.004-0.055-0.084-0.184-0.186-0.287c-2.348-2.758-4.736-5.418-7.053-8.18
		c-0.209-0.301-0.416-0.602-0.621-0.9c1.189,1.324,2.389,2.619,3.602,3.852c0.172,0.176,0.299,0.25,0.322,0.189
		c0.045,0.078,0.117,0.172,0.195,0.248c0.441,0.395,0.893,0.857,1.363,1.354c0.109,0.104,0.186,0.146,0.17,0.08
		c-0.014-0.074-0.106-0.207-0.203-0.305c-0.48-0.502-0.963-0.991-1.43-1.42c-0.051-0.047-0.094-0.072-0.117-0.072
		c-0.055-0.125-0.18-0.301-0.328-0.459c-1.951-2.27-3.9-4.473-5.834-6.703c-0.387-0.546-0.781-1.094-1.189-1.65
		c0.836,0.92,1.678,1.861,2.543,2.826c2.118,2.369,4.148,4.502,6.273,6.908c0.092,0.111,0.174,0.172,0.205,0.17
		c1.787,2,3.582,3.991,5.363,6.004c0.494,0.574,0.971,0.912,1.057,0.752c0.088-0.16-0.246-0.765-0.736-1.33
		c-1.46-1.793-2.914-3.496-4.391-5.185c-1.377-1.774-2.758-3.554-4.113-5.349l0.531,0.525l0.477,0.551
		c1.404,1.736,2.844,3.451,4.287,5.172c0.523,0.652,1.086,1.111,1.275,1.049c0.166-0.086-0.094-0.643-0.592-1.275l0.275,0.285
		c0.094,0.1,0.182,0.154,0.184,0.111c-0.002-0.057-0.09-0.199-0.18-0.293c-0.336-0.344-0.666-0.678-0.996-1.016
		c-2.654-3.318-5.305-6.631-7.959-9.951c1.516,1.738,3.025,3.494,4.523,5.271c1.509,1.771,3.035,3.537,4.527,5.336
		c-0.078-0.064-0.119-0.051-0.066,0.053c0.043,0.086,0.168,0.236,0.25,0.303c0.091,0.072,0.113,0.037,0.07-0.055l-0.004-0.009
		c1.604,1.927,3.195,3.872,4.764,5.839c0.09,0.113,0.195,0.199,0.223,0.178c0.029-0.023-0.033-0.145-0.135-0.27
		c-2.598-3.256-5.254-6.456-7.949-9.598c-2.688-3.149-5.348-6.293-8.059-9.35c-0.275-0.344-0.553-0.689-0.832-1.035v-0.002
		c0.041-0.18-0.03-0.472-0.186-0.832c1.84,2.205,3.674,4.4,5.514,6.605c1.461,1.877,2.93,3.748,4.436,5.592
		c0.215,0.266,0.449,0.459,0.527,0.424c0.072-0.033-0.055-0.283-0.278-0.566l-1.097-1.361c0.389,0.322,0.709,0.496,0.863,0.441
		c0.154-0.053,0.119-0.309-0.043-0.676c1.744,1.922,3.49,3.812,5.235,5.625c0.103,0.107,0.181,0.15,0.175,0.094
		c-0.006-0.059-0.082-0.184-0.186-0.289c-2.346-2.756-4.736-5.42-7.053-8.178c-1.596-2.312-3.137-4.58-4.973-7.01
		c-0.613-0.812-1.234-1.605-1.861-2.389c0.066-0.008,0.131-0.016,0.197-0.023c1.729,2.09,3.461,4.16,5.199,6.203
		c3.852,4.584,7.824,8.906,11.752,13.338c0.492,0.572,0.969,0.91,1.055,0.754c0.088-0.16-0.244-0.766-0.734-1.334
		c-1.779-2.181-3.551-4.24-5.359-6.289c-0.912-1.02-1.824-2.045-2.75-3.086c-0.921-1.051-1.854-2.115-2.809-3.205
		c-1.982-2.258-3.768-4.32-5.629-6.498c3.582-0.566,6.684-1.488,10.113-2.178c0.125-0.023,0.137-0.091,0.072-0.143
		c-0.098-0.055-0.266-0.066-0.377-0.039c-3.334,0.295-6.689,0.564-10.098,0.738c-0.057,0.002-0.117,0.004-0.176,0.008
		c0.016-0.094-0.348-0.281-0.635-0.451c0.006-0.031-0.031-0.115-0.109-0.213c-0.031-0.039-0.059-0.078-0.088-0.117
		c0.1-0.01,0.256-0.004,0.496,0.023l0.518,0.084c0.684,0.076,1.355-0.018,1.693-0.246c0.109-0.062,0.176-0.139,0.211-0.215
		c4.803-0.221,9.656-0.246,14.207-0.928c0.232-0.037,0.355-0.119,0.32-0.219c0.084,0.027,0.197,0.035,0.301,0.012
		c0.543-0.148,1.149-0.236,1.787-0.309c0.141-0.031,0.217-0.086,0.156-0.139c-0.068-0.063-0.225-0.09-0.352-0.068
		c-0.654,0.082-1.295,0.178-1.881,0.324c-0.066,0.016-0.105,0.047-0.117,0.076c-0.129-0.062-0.336-0.096-0.541-0.072
		c-4.684,0.125-9.209,0.465-13.928,0.391c2.314-0.262,4.682-0.406,7.168-0.57c3-0.191,5.762-0.523,8.793-0.68
		c0.158,0.004,0.266-0.051,0.248-0.107c-0.021-0.059-0.145-0.109-0.303-0.1c-3.102,0.109-6.007,0.368-8.941,0.617
		c-2.934,0.246-5.897,0.457-9.086,0.307c-0.252-0.018-0.5-0.031-0.746-0.051c1.976-0.404,3.926-0.803,5.865-1.199
		c2.939,0.033,5.869,0.045,8.789,0.02c2.924-0.059,5.84-0.213,8.73-0.371c0.283,0.002,0.514-0.088,0.507-0.201
		c-0.005-0.113-0.245-0.213-0.526-0.215c-3.273-0.258-6.574-0.416-9.865-0.711l0.691-0.121l0.691-0.025
		c2.121,0.059,4.246,0.051,6.375,0.043c0.795,0.026,1.457-0.211,1.5-0.535c0.018-0.32-0.568-0.592-1.332-0.633l0.373-0.049
		c0.121-0.012,0.213-0.072,0.182-0.123c-0.051-0.059-0.209-0.1-0.33-0.09c-0.445,0.07-0.887,0.135-1.332,0.203
		c-4.037-0.156-8.074-0.312-12.117-0.469c2.18-0.084,4.375-0.141,6.578-0.16c2.201-0.037,4.41-0.109,6.629-0.104
		c-0.092,0.037-0.102,0.104,0.008,0.151c0.094,0.038,0.281,0.042,0.373,0.003c0.107-0.041,0.088-0.111-0.008-0.15l-0.01-0.004
		c2.381,0.004,4.766,0.047,7.158,0.146c0.141,0.005,0.26-0.043,0.258-0.107C147.878,103.126,147.749,103.073,147.593,103.073
		 M106.073,84.721c2.15-0.646,3.846-1.732,6.131-1.238c0.158-0.088,0.301-0.148,0.396-0.139l0.105-0.025
		c0.682-1.266,2.283-1.086,3.668-0.932c-0.213-0.486,0.51-0.175,0.539-0.63h0.005c3.544,0.398,6.946,0.281,10.418,1.085
		c1.075-0.16,2.161-0.302,3.251-0.419c-0.91,0.205-1.834,0.376-2.766,0.539c0.449,0.115,0.898,0.244,1.352,0.394l-1.475-0.164
		c-0.234-0.029-0.467-0.06-0.703-0.092c-1.564,0.256-3.172,0.473-4.873,0.674c1.367-0.287,2.758-0.547,4.168-0.777
		c0.236,0.035,0.469,0.072,0.705,0.103c0.277-0.047,0.553-0.092,0.826-0.138c-0.162-0.041-0.326-0.079-0.485-0.12
		c-0.351,0.051-0.702,0.104-1.046,0.155c-2.77-0.442-5.648-1.149-8.424-0.676c-1.492,0.512-3.422,0.533-5.16,0.998
		c-0.041,0.078-0.082,0.166-0.119,0.252c-0.126-0.027-0.256-0.061-0.383-0.088c-0.227,0.127-0.473,0.318-0.629,0.436
		C109.774,84.216,107.956,84.628,106.073,84.721c-0.162,0.045-0.326,0.09-0.496,0.137c-0.506,0.174-1.229-0.135-1.721-0.191
		C104.612,84.751,105.347,84.755,106.073,84.721 M58.724,55.747l-0.012-0.059l1.049,0.235L58.724,55.747z M63.379,53.456
		l-0.013-0.063l0.035,0.008c0.016,0.022,0.031,0.043,0.045,0.066L63.379,53.456z M63.853,57.423c-0.021-0.09-0.051-0.204-0.09-0.342
		c0,0,0.039,0.144,0.094,0.345L63.853,57.423z M63.892,53.541c-0.008-0.012-0.014-0.022-0.023-0.033l0.347,0.076
		c0.002,0.006,0.008,0.009,0.012,0.013L63.892,53.541z M49.666,80.01c0.033,0.063,0.066,0.122,0.101,0.178
		c-0.271,0.076-0.539,0.143-0.801,0.192C49.17,80.139,49.424,79.967,49.666,80.01 M48.558,81.206
		c0.006-0.053,0.02-0.114,0.033-0.174c2.194,0.008,4.467-0.08,6.129,0.486C52.629,81.616,50.354,81.706,48.558,81.206 M61.11,87.143
		l0.006-0.103l0.031,0.08L61.11,87.143z M75.996,61.614c-0.108-0.109-0.287-0.336-0.262-0.162c-0.754-0.951-1.533-1.912-2.346-2.887
		c-0.301-0.361-0.621-0.707-0.931-1.029c-0.17-0.481-0.362-0.979-0.674-1.571c0.623,0.926,1.422,1.938,2.15,2.881
		c0.807,1.047,1.596,2.077,2.381,3.104C76.208,61.839,76.101,61.725,75.996,61.614 M79.244,63.042l-0.547-0.746l0.066,0.16
		c-0.76-0.928-1.478-1.856-2.207-2.782c-0.635-0.912-1.324-1.851-2.056-2.794c-0.377-0.495-0.758-0.991-1.145-1.487
		c0.406,0.373,0.799,0.721,1.176,1.033c1.355,1.889,2.638,3.741,4.195,5.653l0.274,0.4l0.308,0.639L79.244,63.042z M45.278,107.812
		l-0.059-0.054l0.729-1.136L45.278,107.812z M49.252,102.827c-0.085-0.072-0.193-0.156-0.322-0.266c0,0,0.137,0.112,0.324,0.266
		H49.252z M58.324,100.048c-0.143,0.025-0.42,0.014-0.266,0.174c-1.156-0.055-2.33-0.084-3.535-0.082
		c-0.445-0.002-0.887,0.039-1.311,0.094c-0.472-0.311-0.972-0.607-1.611-0.854c1.068,0.199,2.293,0.262,3.428,0.34
		c1.262,0.096,2.496,0.186,3.726,0.279C58.612,100.019,58.467,100.032,58.324,100.048 M61.138,97.302l-0.886-0.1l0.166,0.088
		c-1.139-0.018-2.256-0.092-3.379-0.154c-1.063-0.166-2.176-0.293-3.311-0.369c-0.603-0.049-1.207-0.093-1.812-0.125
		c0.513-0.129,0.996-0.271,1.449-0.427c2.222,0.296,4.383,0.651,6.726,0.706l0.465,0.076l0.676,0.309L61.138,97.302z
		 M101.493,89.032c-0.032,0.012-0.066,0.021-0.104,0.031c-0.148-0.197-0.301-0.394-0.453-0.592c0.024-0.002,0.043-0.005,0.066-0.005
		C101.165,88.655,101.329,88.842,101.493,89.032 M100.755,88.178c-0.012,0.006-0.021,0.01-0.033,0.014
		c-0.125-0.16-0.25-0.324-0.377-0.486C100.481,87.864,100.618,88.021,100.755,88.178 M90.493,74.081
		c1.504-0.041,3.047-0.237,4.518-0.612C94.847,74.655,92.86,74.368,90.493,74.081 M102.293,90.229
		c0.069-0.006,0.144-0.012,0.216-0.021c1.621,1.881,3.252,3.742,4.895,5.586c-0.27-0.023-0.537-0.045-0.807-0.066
		C105.128,93.892,103.7,92.06,102.293,90.229 M104.821,113.536c0.014,0,0.023-0.002,0.037-0.004c0.312,0.381,0.801,0.969,1.25,1.504
		C105.681,114.542,105.252,114.034,104.821,113.536 M108.011,97.444c-0.287-0.34-0.576-0.678-0.859-1.014
		c-0.127-0.154-0.246-0.312-0.369-0.467c0.275,0.021,0.555,0.043,0.832,0.066c0.432,0.482,0.855,0.975,1.287,1.451
		C108.606,97.47,108.308,97.458,108.011,97.444 M108.954,98.651c-0.1-0.137-0.213-0.27-0.314-0.406
		c0.398,0.025,0.801,0.051,1.203,0.074c-0.006,0.035,0.027,0.107,0.098,0.203c0.117,0.151,0.234,0.303,0.35,0.455
		c-0.387-0.033-0.775-0.07-1.16-0.104C109.071,98.798,109.013,98.726,108.954,98.651 M119.806,120.765
		c0.496,0.59,0.998,1.166,1.502,1.75c-0.533-0.582-1.064-1.164-1.598-1.744c-1.264-1.381-2.527-2.785-3.789-4.246
		c-0.842-1.105-1.703-2.18-2.568-3.232c0.322,0.307,0.639,0.609,0.957,0.918C116.138,116.424,117.966,118.604,119.806,120.765
		 M118.647,109.903c0.027,0.037,0.055,0.061,0.084,0.09c-0.137-0.086-0.217-0.162-0.17-0.203
		C118.589,109.827,118.618,109.864,118.647,109.903"/>
	<path clip-path="url(#SVGID_2_)" d="M165.968,165.315H14.032V14.684h151.936V165.315z M20.528,158.819h138.943V21.18H20.528
		V158.819z"/>
</g>
</svg>
